<?xml version="1.0" standalone="no"?><svg xmlns="http://www.w3.org/2000/svg" xmlns:xlink="http://www.w3.org/1999/xlink" style="isolation:isolate" viewBox="-1154 1486 2019 1122.928" width="2019" height="1122.928"><g><path d=" M -1154 1486 L 865 1486 L 865 2608.928 L -1154 2608.928 L -1154 1486 Z " fill="rgb(36,33,36)"/><g><path d=" M 45.691 1981.22 C 45.691 1966.453 57.68 1954.464 72.447 1954.464 C 87.214 1954.464 99.202 1966.453 99.202 1981.22 C 99.202 1995.987 87.214 2007.975 72.447 2007.975 C 57.68 2007.975 45.691 1995.987 45.691 1981.22 Z " fill="rgb(255,255,255)"/><path d=" M -425.097 2171.901 L -413.872 2199.18 L -410.056 2208.103 L -411.641 2211.99 C -412.408 2213.957 -413.293 2215.301 -414.301 2216.021 C -415.261 2216.789 -416.46 2217.174 -417.9 2217.174 C -420.347 2217.174 -422.435 2216.404 -424.162 2214.868 L -426.036 2220.843 C -423.732 2222.522 -420.852 2223.363 -417.397 2223.363 C -414.182 2223.363 -411.591 2222.522 -409.623 2220.843 C -407.608 2219.163 -405.809 2216.261 -404.225 2212.134 L -388.463 2171.901 L -396.451 2171.901 L -404.011 2193.852 L -406.387 2201.268 L -408.474 2194.502 L -416.462 2171.901 L -425.097 2171.901 L -425.097 2171.901 L -425.097 2171.901 L -425.097 2171.901 L -425.097 2171.901 L -425.097 2171.901 L -425.097 2171.901 Z  M 184.219 2171.181 C 180.716 2171.181 177.621 2171.925 174.934 2173.412 C 172.247 2174.9 170.137 2177.059 168.601 2179.89 C 167.114 2182.721 166.37 2186.056 166.37 2189.895 C 166.37 2193.734 167.114 2197.07 168.601 2199.901 C 170.137 2202.732 172.269 2204.89 175.004 2206.378 C 177.739 2207.865 180.883 2208.609 184.434 2208.609 C 188.464 2208.609 191.826 2207.673 194.513 2205.801 C 197.248 2203.882 199.118 2201.242 200.125 2197.883 L 193.142 2195.508 C 192.662 2197.763 191.681 2199.492 190.194 2200.691 C 188.706 2201.891 186.737 2202.491 184.289 2202.491 C 181.075 2202.491 178.557 2201.41 176.734 2199.25 C 174.958 2197.091 174.07 2193.996 174.07 2189.965 C 174.07 2185.935 174.958 2182.817 176.734 2180.61 C 178.509 2178.403 181.027 2177.299 184.289 2177.299 C 188.608 2177.299 191.392 2179.577 192.64 2184.135 L 199.911 2181.257 C 198.711 2178.138 196.816 2175.69 194.225 2173.915 C 191.634 2172.092 188.298 2171.181 184.219 2171.181 L 184.219 2171.181 L 184.219 2171.181 L 184.219 2171.181 L 184.219 2171.181 L 184.219 2171.181 L 184.219 2171.181 L 184.219 2171.181 Z  M 224.417 2177.299 C 227.104 2177.299 229.24 2178.092 230.824 2179.675 C 232.407 2181.211 233.292 2183.417 233.484 2186.296 L 214.556 2186.296 C 215.035 2183.369 216.116 2181.137 217.796 2179.601 C 219.523 2178.066 221.73 2177.299 224.417 2177.299 L 224.417 2177.299 L 224.417 2177.299 L 224.417 2177.299 L 224.417 2177.299 L 224.417 2177.299 L 224.417 2177.299 L 224.417 2177.299 Z  M -465.225 2171.181 C -467.96 2171.181 -470.381 2171.758 -472.492 2172.91 C -474.604 2174.062 -476.236 2175.813 -477.388 2178.164 L -477.746 2171.901 L -484.586 2171.901 L -484.586 2207.889 L -476.882 2207.889 L -476.882 2188.742 C -476.882 2184.952 -475.923 2182.145 -474.004 2180.322 C -472.084 2178.45 -469.781 2177.514 -467.094 2177.514 C -461.96 2177.514 -459.394 2180.657 -459.394 2186.943 L -459.394 2207.889 L -451.691 2207.889 L -451.691 2184.567 C -451.691 2180.249 -452.964 2176.939 -455.507 2174.636 C -458.002 2172.332 -461.242 2171.181 -465.225 2171.181 L -465.225 2171.181 L -465.225 2171.181 L -465.225 2171.181 L -465.225 2171.181 L -465.225 2171.181 L -465.225 2171.181 L -465.225 2171.181 Z  M -314.053 2171.181 C -319.571 2171.181 -323.336 2173.58 -325.351 2178.378 L -326.072 2171.901 L -332.623 2171.901 L -332.623 2207.889 L -324.919 2207.889 L -324.919 2188.816 C -324.919 2186.513 -324.49 2184.543 -323.626 2182.912 C -322.714 2181.28 -321.537 2180.059 -320.097 2179.243 C -318.658 2178.427 -317.147 2178.02 -315.564 2178.02 C -313.836 2178.02 -312.374 2178.235 -311.174 2178.667 L -310.095 2171.901 C -311.055 2171.421 -312.373 2171.181 -314.053 2171.181 L -314.053 2171.181 L -314.053 2171.181 L -314.053 2171.181 L -314.053 2171.181 L -314.053 2171.181 L -314.053 2171.181 L -314.053 2171.181 Z  M -35.368 2177.299 C -32.681 2177.299 -30.544 2178.092 -28.961 2179.675 C -27.377 2181.211 -26.492 2183.417 -26.3 2186.296 L -45.229 2186.296 C -44.749 2183.369 -43.668 2181.137 -41.989 2179.601 C -40.261 2178.066 -38.055 2177.299 -35.368 2177.299 L -35.368 2177.299 L -35.368 2177.299 L -35.368 2177.299 L -35.368 2177.299 L -35.368 2177.299 L -35.368 2177.299 L -35.368 2177.299 Z  M -241.79 2171.181 C -244.237 2171.181 -246.491 2171.758 -248.555 2172.91 C -250.618 2174.014 -252.251 2175.691 -253.45 2177.946 L -253.809 2171.901 L -260.648 2171.901 L -260.648 2207.889 L -252.944 2207.889 L -252.944 2188.742 C -252.944 2186.199 -252.489 2184.089 -251.577 2182.409 C -250.665 2180.73 -249.492 2179.505 -248.052 2178.737 C -246.613 2177.921 -245.124 2177.514 -243.589 2177.514 C -241.334 2177.514 -239.534 2178.188 -238.191 2179.531 C -236.847 2180.875 -236.177 2182.963 -236.177 2185.794 L -236.177 2207.889 L -228.473 2207.889 L -228.473 2188.31 C -228.473 2184.951 -227.585 2182.315 -225.81 2180.396 C -223.986 2178.476 -221.757 2177.514 -219.118 2177.514 C -216.863 2177.514 -215.064 2178.188 -213.72 2179.531 C -212.376 2180.875 -211.703 2182.963 -211.703 2185.794 L -211.703 2207.889 L -204.003 2207.889 L -204.003 2184.567 C -204.003 2181.64 -204.602 2179.171 -205.802 2177.155 C -207.002 2175.14 -208.609 2173.652 -210.624 2172.692 C -212.639 2171.684 -214.846 2171.181 -217.245 2171.181 C -219.836 2171.181 -222.309 2171.806 -224.66 2173.054 C -226.964 2174.254 -228.641 2175.979 -229.696 2178.234 C -230.8 2175.931 -232.433 2174.18 -234.592 2172.98 C -236.703 2171.781 -239.102 2171.181 -241.79 2171.181 L -241.79 2171.181 L -241.79 2171.181 L -241.79 2171.181 L -241.79 2171.181 L -241.79 2171.181 L -241.79 2171.181 L -241.79 2171.181 Z  M 67.893 2177.226 C 71.059 2177.226 73.533 2178.329 75.308 2180.536 C 77.131 2182.743 78.042 2185.864 78.042 2189.895 C 78.042 2193.926 77.131 2197.043 75.308 2199.25 C 73.533 2201.458 71.059 2202.561 67.893 2202.561 C 64.678 2202.561 62.16 2201.458 60.337 2199.25 C 58.561 2197.043 57.673 2193.926 57.673 2189.895 C 57.673 2185.864 58.561 2182.743 60.337 2180.536 C 62.16 2178.329 64.678 2177.226 67.893 2177.226 L 67.893 2177.226 L 67.893 2177.226 L 67.893 2177.226 L 67.893 2177.226 L 67.893 2177.226 L 67.893 2177.226 Z  M -60.875 2171.181 C -66.393 2171.181 -70.159 2173.58 -72.174 2178.378 L -72.894 2171.901 L -79.445 2171.901 L -79.445 2207.889 L -71.742 2207.889 L -71.742 2188.816 C -71.742 2186.513 -71.312 2184.543 -70.448 2182.912 C -69.537 2181.28 -68.359 2180.059 -66.92 2179.243 C -65.48 2178.427 -63.97 2178.02 -62.386 2178.02 C -60.659 2178.02 -59.196 2178.235 -57.997 2178.667 L -56.918 2171.901 C -57.878 2171.421 -59.196 2171.181 -60.875 2171.181 L -60.875 2171.181 L -60.875 2171.181 L -60.875 2171.181 L -60.875 2171.181 L -60.875 2171.181 L -60.875 2171.181 L -60.875 2171.181 Z  M -288.187 2177.226 C -285.02 2177.226 -282.547 2178.329 -280.771 2180.536 C -278.948 2182.743 -278.037 2185.864 -278.037 2189.895 C -278.037 2193.926 -278.948 2197.043 -280.771 2199.25 C -282.547 2201.458 -285.02 2202.561 -288.187 2202.561 C -291.402 2202.561 -293.919 2201.458 -295.743 2199.25 C -297.518 2197.043 -298.407 2193.926 -298.407 2189.895 C -298.407 2185.864 -297.518 2182.743 -295.743 2180.536 C -293.919 2178.329 -291.402 2177.226 -288.187 2177.226 L -288.187 2177.226 L -288.187 2177.226 L -288.187 2177.226 L -288.187 2177.226 L -288.187 2177.226 L -288.187 2177.226 Z  M 27.635 2171.181 C 24.612 2171.181 21.972 2171.684 19.717 2172.692 C 17.462 2173.7 15.736 2175.069 14.537 2176.797 C 13.385 2178.476 12.808 2180.298 12.808 2182.265 C 12.808 2184.952 13.648 2187.159 15.328 2188.886 C 17.007 2190.566 19.717 2191.765 23.46 2192.485 L 31.019 2194.07 C 32.603 2194.406 33.706 2194.91 34.33 2195.581 C 35.002 2196.253 35.335 2197.094 35.335 2198.101 C 35.335 2199.445 34.687 2200.522 33.392 2201.338 C 32.096 2202.106 30.345 2202.491 28.138 2202.491 C 25.451 2202.491 23.099 2201.913 21.084 2200.762 C 19.069 2199.61 17.51 2198.029 16.407 2196.014 L 11.082 2200.617 C 12.81 2203.161 15.161 2205.13 18.136 2206.522 C 21.111 2207.913 24.395 2208.609 27.993 2208.609 C 32.6 2208.609 36.247 2207.554 38.934 2205.443 C 41.669 2203.331 43.039 2200.522 43.039 2197.019 C 43.039 2194.62 42.294 2192.654 40.807 2191.118 C 39.32 2189.535 36.92 2188.405 33.61 2187.734 L 25.403 2186.008 C 23.58 2185.624 22.284 2185.095 21.516 2184.423 C 20.797 2183.703 20.438 2182.841 20.438 2181.833 C 20.438 2180.489 21.085 2179.412 22.381 2178.596 C 23.677 2177.733 25.476 2177.299 27.779 2177.299 C 29.794 2177.299 31.664 2177.803 33.392 2178.811 C 35.119 2179.77 36.441 2181.162 37.352 2182.986 L 42.677 2178.522 C 41.333 2176.171 39.367 2174.372 36.776 2173.124 C 34.233 2171.829 31.186 2171.181 27.635 2171.181 L 27.635 2171.181 L 27.635 2171.181 L 27.635 2171.181 L 27.635 2171.181 L 27.635 2171.181 L 27.635 2171.181 L 27.635 2171.181 Z  M -512.124 2177.226 C -508.957 2177.226 -506.484 2178.329 -504.709 2180.536 C -502.886 2182.743 -501.975 2185.864 -501.975 2189.895 C -501.975 2193.926 -502.886 2197.043 -504.709 2199.25 C -506.484 2201.458 -508.957 2202.561 -512.124 2202.561 C -515.339 2202.561 -517.857 2201.458 -519.68 2199.25 C -521.456 2197.043 -522.344 2193.926 -522.344 2189.895 C -522.344 2185.864 -521.456 2182.743 -519.68 2180.536 C -517.857 2178.329 -515.339 2177.226 -512.124 2177.226 L -512.124 2177.226 L -512.124 2177.226 L -512.124 2177.226 L -512.124 2177.226 L -512.124 2177.226 L -512.124 2177.226 Z  M -439.879 2155.707 L -439.879 2207.889 L -432.175 2207.889 L -432.175 2155.707 L -439.879 2155.707 L -439.879 2155.707 L -439.879 2155.707 L -439.879 2155.707 L -439.879 2155.707 L -439.879 2155.707 L -439.879 2155.707 Z  M 158.423 2171.181 C 152.905 2171.181 149.14 2173.58 147.125 2178.378 L 146.404 2171.901 L 139.853 2171.901 L 139.853 2207.889 L 147.557 2207.889 L 147.557 2188.816 C 147.557 2186.513 147.987 2184.543 148.85 2182.912 C 149.762 2181.28 150.939 2180.059 152.379 2179.243 C 153.818 2178.427 155.329 2178.02 156.912 2178.02 C 158.64 2178.02 160.102 2178.235 161.302 2178.667 L 162.381 2171.901 C 161.421 2171.421 160.103 2171.181 158.423 2171.181 L 158.423 2171.181 L 158.423 2171.181 L 158.423 2171.181 L 158.423 2171.181 L 158.423 2171.181 L 158.423 2171.181 L 158.423 2171.181 Z  M -346.181 2155.204 C -350.116 2155.204 -353.185 2156.211 -355.393 2158.227 C -357.6 2160.242 -358.707 2163.071 -358.707 2166.718 L -358.707 2171.901 L -365.472 2171.901 L -365.472 2177.946 L -358.707 2177.946 L -358.707 2207.889 L -351.003 2207.889 L -351.003 2177.946 L -339.56 2177.946 L -339.56 2171.901 L -351.221 2171.901 L -351.221 2167.294 C -351.221 2163.407 -349.107 2161.464 -344.885 2161.464 C -343.253 2161.464 -341.887 2161.8 -340.783 2162.472 L -339.342 2156.93 C -339.966 2156.402 -340.903 2155.995 -342.15 2155.707 C -343.35 2155.371 -344.694 2155.204 -346.181 2155.204 L -346.181 2155.204 L -346.181 2155.204 L -346.181 2155.204 L -346.181 2155.204 L -346.181 2155.204 L -346.181 2155.204 L -346.181 2155.204 Z  M 95.143 2171.901 L 95.143 2195.652 C 95.143 2200.018 96.369 2203.283 98.816 2205.443 C 101.263 2207.554 104.406 2208.609 108.245 2208.609 C 114.243 2208.609 118.415 2206.425 120.767 2202.058 L 121.129 2207.889 L 127.894 2207.889 L 127.894 2171.901 L 120.19 2171.901 L 120.19 2191.406 C 120.19 2195.005 119.279 2197.715 117.456 2199.539 C 115.633 2201.362 113.4 2202.273 110.761 2202.273 C 108.122 2202.273 106.134 2201.625 104.79 2200.329 C 103.495 2199.034 102.847 2196.827 102.847 2193.708 L 102.847 2171.901 L 95.143 2171.901 L 95.143 2171.901 L 95.143 2171.901 L 95.143 2171.901 L 95.143 2171.901 L 95.143 2171.901 L 95.143 2171.901 Z  M -124.155 2171.901 L -124.155 2195.652 C -124.155 2200.018 -122.93 2203.283 -120.483 2205.443 C -118.036 2207.554 -114.892 2208.609 -111.054 2208.609 C -105.056 2208.609 -100.883 2206.425 -98.532 2202.058 L -98.17 2207.889 L -91.405 2207.889 L -91.405 2171.901 L -99.108 2171.901 L -99.108 2191.406 C -99.108 2195.005 -100.019 2197.715 -101.843 2199.539 C -103.666 2201.362 -105.898 2202.273 -108.537 2202.273 C -111.177 2202.273 -113.165 2201.625 -114.508 2200.329 C -115.804 2199.034 -116.452 2196.827 -116.452 2193.708 L -116.452 2171.901 L -124.155 2171.901 L -124.155 2171.901 L -124.155 2171.901 L -124.155 2171.901 L -124.155 2171.901 L -124.155 2171.901 L -124.155 2171.901 Z  M -151.213 2177.37 C -148.142 2177.37 -145.743 2178.473 -144.015 2180.68 C -142.288 2182.888 -141.425 2185.96 -141.425 2189.895 C -141.425 2193.83 -142.314 2196.899 -144.089 2199.106 C -145.817 2201.266 -148.238 2202.347 -151.357 2202.347 C -154.38 2202.347 -156.805 2201.217 -158.628 2198.962 C -160.404 2196.707 -161.289 2193.686 -161.289 2189.895 C -161.289 2186.056 -160.378 2183.009 -158.554 2180.754 C -156.683 2178.499 -154.236 2177.37 -151.213 2177.37 L -151.213 2177.37 L -151.213 2177.37 L -151.213 2177.37 L -151.213 2177.37 L -151.213 2177.37 L -151.213 2177.37 L -151.213 2177.37 Z  M 311.867 2051.691 Q 336.137 2078.3 375.905 2078.3 Q 415.673 2078.3 439.943 2051.691 Q 464.506 2025.081 464.506 1981.22 Q 464.506 1937.358 439.943 1910.749 Q 415.673 1884.139 375.905 1884.139 Q 336.137 1884.139 311.867 1910.749 Q 287.597 1937.358 287.597 1981.22 Q 287.597 2025.081 311.867 2051.691 L 311.867 2051.691 L 311.867 2051.691 L 311.867 2051.691 L 311.867 2051.691 L 311.867 2051.691 L 311.867 2051.691 Z  M 99.202 1874.49 L 253.303 1874.49 L 253.303 1887.356 L 183.417 1887.356 L 183.417 2087.95 L 168.796 2087.95 L 168.796 1887.356 L 99.202 1887.356 L 99.202 1874.49 L 99.202 1874.49 L 99.202 1874.49 L 99.202 1874.49 L 99.202 1874.49 Z  M -128.768 1874.49 L -128.768 1966.014 L -5.956 1966.014 L -5.956 1874.49 L 8.665 1874.49 L 8.665 2087.95 L -5.956 2087.95 L -5.956 1978.296 L -128.768 1978.296 L -128.768 2087.95 L -143.389 2087.95 L -143.389 1874.49 L -128.768 1874.49 L -128.768 1874.49 L -128.768 1874.49 L -128.768 1874.49 Z  M -251.435 1884.139 Q -273.95 1884.139 -286.524 1894.081 Q -298.805 1903.731 -298.805 1921.276 Q -298.805 1953.441 -251.142 1968.061 Q -217.223 1978.296 -202.31 1993.793 Q -187.397 2009.291 -187.397 2033.854 Q -187.397 2061.34 -204.357 2076.253 Q -221.024 2090.874 -252.312 2090.874 Q -287.986 2090.874 -315.18 2071.282 L -309.917 2059.586 Q -284.77 2078.3 -252.312 2078.3 Q -227.749 2078.3 -214.883 2066.896 Q -202.017 2055.492 -202.017 2033.854 Q -202.017 2014.262 -213.714 2002.273 Q -225.118 1989.992 -252.312 1981.512 Q -313.133 1963.383 -313.133 1921.276 Q -313.133 1898.76 -297.051 1885.309 Q -280.676 1871.566 -251.435 1871.566 Q -218.685 1871.566 -191.49 1885.601 L -195.584 1897.298 Q -220.147 1884.139 -251.435 1884.139 L -251.435 1884.139 L -251.435 1884.139 Z  M -384.482 1874.49 L -369.861 1874.49 L -369.861 1966.014 L -369.861 1978.296 L -369.861 2087.95 L -384.482 2087.95 L -384.482 1874.49 L -384.482 1874.49 Z  M 67.893 2171.181 C 64.39 2171.181 61.272 2171.925 58.537 2173.412 C 55.85 2174.9 53.74 2177.059 52.204 2179.89 C 50.717 2182.721 49.973 2186.056 49.973 2189.895 C 49.973 2193.734 50.717 2197.07 52.204 2199.901 C 53.74 2202.732 55.85 2204.89 58.537 2206.378 C 61.272 2207.865 64.39 2208.609 67.893 2208.609 C 71.395 2208.609 74.49 2207.865 77.178 2206.378 C 79.865 2204.89 81.953 2202.732 83.44 2199.901 C 84.976 2197.07 85.742 2193.734 85.742 2189.895 C 85.742 2186.056 84.976 2182.721 83.44 2179.89 C 81.953 2177.059 79.865 2174.9 77.178 2173.412 C 74.49 2171.925 71.395 2171.181 67.893 2171.181 L 67.893 2171.181 L 67.893 2171.181 L 67.893 2171.181 L 67.893 2171.181 L 67.893 2171.181 L 67.893 2171.181 L 67.893 2171.181 Z  M -35.224 2171.181 C -38.678 2171.181 -41.751 2171.925 -44.438 2173.412 C -47.125 2174.9 -49.21 2177.059 -50.697 2179.89 C -52.185 2182.721 -52.929 2186.056 -52.929 2189.895 C -52.929 2193.734 -52.185 2197.07 -50.697 2199.901 C -49.162 2202.732 -47.029 2204.89 -44.294 2206.378 C -41.559 2207.865 -38.39 2208.609 -34.791 2208.609 C -31.241 2208.609 -28.123 2207.865 -25.436 2206.378 C -22.701 2204.89 -20.709 2202.828 -19.461 2200.189 L -25.58 2197.307 C -26.492 2198.986 -27.714 2200.282 -29.249 2201.194 C -30.737 2202.058 -32.632 2202.491 -34.935 2202.491 C -37.91 2202.491 -40.31 2201.602 -42.133 2199.827 C -43.956 2198.051 -45.037 2195.508 -45.373 2192.197 L -19.029 2192.197 C -18.837 2190.757 -18.741 2189.269 -18.741 2187.734 C -18.741 2184.567 -19.415 2181.738 -20.758 2179.243 C -22.054 2176.748 -23.949 2174.778 -26.445 2173.339 C -28.892 2171.899 -31.817 2171.181 -35.224 2171.181 L -35.224 2171.181 L -35.224 2171.181 L -35.224 2171.181 L -35.224 2171.181 L -35.224 2171.181 L -35.224 2171.181 L -35.224 2171.181 Z  M -149.487 2171.181 C -152.27 2171.181 -154.74 2171.855 -156.899 2173.198 C -159.058 2174.542 -160.691 2176.341 -161.795 2178.596 L -162.153 2171.901 L -168.992 2171.901 L -168.992 2223.004 L -161.289 2223.004 L -161.289 2201.988 C -160.185 2204.003 -158.626 2205.61 -156.611 2206.81 C -154.596 2208.009 -152.293 2208.609 -149.702 2208.609 C -146.727 2208.609 -144.039 2207.865 -141.64 2206.378 C -139.192 2204.842 -137.275 2202.658 -135.883 2199.827 C -134.444 2196.996 -133.725 2193.66 -133.725 2189.821 C -133.725 2186.031 -134.421 2182.721 -135.813 2179.89 C -137.204 2177.059 -139.096 2174.9 -141.496 2173.412 C -143.895 2171.925 -146.56 2171.181 -149.487 2171.181 L -149.487 2171.181 L -149.487 2171.181 L -149.487 2171.181 L -149.487 2171.181 L -149.487 2171.181 L -149.487 2171.181 L -149.487 2171.181 Z  M -288.187 2171.181 C -291.689 2171.181 -294.807 2171.925 -297.542 2173.412 C -300.229 2174.9 -302.34 2177.059 -303.875 2179.89 C -305.362 2182.721 -306.107 2186.056 -306.107 2189.895 C -306.107 2193.734 -305.362 2197.07 -303.875 2199.901 C -302.34 2202.732 -300.229 2204.89 -297.542 2206.378 C -294.807 2207.865 -291.689 2208.609 -288.187 2208.609 C -284.684 2208.609 -281.589 2207.865 -278.902 2206.378 C -276.215 2204.89 -274.126 2202.732 -272.639 2199.901 C -271.104 2197.07 -270.337 2193.734 -270.337 2189.895 C -270.337 2186.056 -271.104 2182.721 -272.639 2179.89 C -274.126 2177.059 -276.215 2174.9 -278.902 2173.412 C -281.589 2171.925 -284.684 2171.181 -288.187 2171.181 L -288.187 2171.181 L -288.187 2171.181 L -288.187 2171.181 L -288.187 2171.181 L -288.187 2171.181 L -288.187 2171.181 L -288.187 2171.181 Z  M -512.124 2171.181 C -515.627 2171.181 -518.745 2171.925 -521.48 2173.412 C -524.167 2174.9 -526.277 2177.059 -527.813 2179.89 C -529.3 2182.721 -530.044 2186.056 -530.044 2189.895 C -530.044 2193.734 -529.3 2197.07 -527.813 2199.901 C -526.277 2202.732 -524.167 2204.89 -521.48 2206.378 C -518.745 2207.865 -515.627 2208.609 -512.124 2208.609 C -508.622 2208.609 -505.526 2207.865 -502.839 2206.378 C -500.152 2204.89 -498.064 2202.732 -496.577 2199.901 C -495.041 2197.07 -494.275 2193.734 -494.275 2189.895 C -494.275 2186.056 -495.041 2182.721 -496.577 2179.89 C -498.064 2177.059 -500.152 2174.9 -502.839 2173.412 C -505.526 2171.925 -508.622 2171.181 -512.124 2171.181 L -512.124 2171.181 L -512.124 2171.181 L -512.124 2171.181 L -512.124 2171.181 L -512.124 2171.181 L -512.124 2171.181 L -512.124 2171.181 Z  M 224.561 2171.181 C 221.106 2171.181 218.037 2171.925 215.35 2173.412 C 212.663 2174.9 210.575 2177.059 209.087 2179.89 C 207.6 2182.721 206.855 2186.056 206.855 2189.895 C 206.855 2193.734 207.6 2197.07 209.087 2199.901 C 210.623 2202.732 212.759 2204.89 215.494 2206.378 C 218.229 2207.865 221.395 2208.609 224.993 2208.609 C 228.544 2208.609 231.662 2207.865 234.349 2206.378 C 237.084 2204.89 239.075 2202.828 240.323 2200.189 L 234.205 2197.307 C 233.293 2198.986 232.071 2200.282 230.536 2201.194 C 229.048 2202.058 227.152 2202.491 224.849 2202.491 C 221.874 2202.491 219.475 2201.602 217.652 2199.827 C 215.828 2198.051 214.747 2195.508 214.411 2192.197 L 240.755 2192.197 C 240.947 2190.757 241.044 2189.269 241.044 2187.734 C 241.044 2184.567 240.37 2181.738 239.026 2179.243 C 237.731 2176.748 235.839 2174.778 233.344 2173.339 C 230.896 2171.899 227.968 2171.181 224.561 2171.181 L 224.561 2171.181 L 224.561 2171.181 L 224.561 2171.181 L 224.561 2171.181 L 224.561 2171.181 L 224.561 2171.181 L 224.561 2171.181 Z  M 450.763 2060.756 Q 422.399 2090.874 375.905 2090.874 Q 329.412 2090.874 301.048 2060.756 Q 272.684 2030.637 272.684 1981.22 Q 272.684 1931.802 301.048 1901.684 Q 329.412 1871.566 375.905 1871.566 Q 422.399 1871.566 450.763 1901.684 Q 479.419 1931.802 479.419 1981.22 Q 479.419 2030.637 450.763 2060.756 L 450.763 2060.756 L 450.763 2060.756 L 450.763 2060.756 L 450.763 2060.756 L 450.763 2060.756 L 450.763 2060.756 Z  M -616.51 2138.537 L -616.51 2138.537 L -616.51 2138.537 Q -610.516 2144.385 -599.697 2144.385 L -599.697 2144.385 L -599.697 2144.385 Q -588.877 2144.385 -582.737 2138.537 L -582.737 2138.537 L -582.737 2138.537 Q -576.596 2132.689 -576.596 2122.162 L -576.596 2122.162 L -576.596 2122.162 Q -576.596 2113.974 -580.543 2103.155 L -580.543 2103.155 L -580.543 2103.155 Q -584.491 2092.336 -599.404 2061.633 L -599.404 2061.633 L -599.989 2061.633 L -599.989 2061.633 Q -614.609 2092.044 -618.557 2102.863 L -618.557 2102.863 L -618.557 2102.863 Q -622.504 2113.682 -622.504 2122.162 L -622.504 2122.162 L -622.504 2122.162 Q -622.504 2132.689 -616.51 2138.537 L -616.51 2138.537 L -616.51 2138.537 L -616.51 2138.537 Z  M -518.165 1890.439 L -591.509 2049.352 L -591.509 2049.352 Q -573.964 2084.733 -568.993 2098.184 L -568.993 2098.184 L -568.993 2098.184 Q -564.022 2111.635 -564.022 2122.162 L -564.022 2122.162 L -564.022 2122.162 Q -564.022 2137.66 -573.526 2146.432 L -573.526 2146.432 L -573.526 2146.432 L -573.526 2146.432 Q -583.029 2155.204 -599.697 2155.204 L -599.697 2155.204 L -599.697 2155.204 Q -616.364 2155.204 -625.721 2146.432 L -625.721 2146.432 L -625.721 2146.432 Q -635.078 2137.66 -635.078 2122.162 L -635.078 2122.162 L -635.078 2122.162 Q -635.078 2111.635 -630.107 2098.184 L -630.107 2098.184 L -630.107 2098.184 Q -625.136 2084.733 -607.592 2049.352 L -607.592 2049.352 L -680.936 1890.439 L -680.936 1890.439 L -752.628 2087.95 L -768.418 2087.95 L -688.297 1874.49 L -672.507 1874.49 L -599.697 2036.193 L -599.112 2036.193 L -526.301 1874.49 L -510.804 1874.49 L -430.683 2087.95 L -446.473 2087.95 L -518.165 1890.439 L -518.165 1890.439 Z " fill-rule="evenodd" fill="rgb(255,255,255)"/></g></g></svg>
