<?xml version="1.0" standalone="no"?><svg xmlns="http://www.w3.org/2000/svg" xmlns:xlink="http://www.w3.org/1999/xlink" style="isolation:isolate" viewBox="966 320 2019 1054.797" width="2019" height="1054.797"><g><path d=" M 966 320 L 2985 320 L 2985 1374.797 L 966 1374.797 L 966 320 Z " fill="rgb(36,33,36)"/><g><path d=" M 2165.69 815.233 C 2165.69 800.467 2177.679 788.478 2192.446 788.478 C 2207.213 788.478 2219.202 800.467 2219.202 815.233 C 2219.202 830 2207.213 841.989 2192.446 841.989 C 2177.679 841.989 2165.69 830 2165.69 815.233 Z " fill="rgb(34,139,34)"/><path d=" M 2431.867 885.704 Q 2456.137 912.314 2495.905 912.314 Q 2535.673 912.314 2559.943 885.704 Q 2584.505 859.095 2584.505 815.233 Q 2584.505 771.372 2559.943 744.762 Q 2535.673 718.153 2495.905 718.153 Q 2456.137 718.153 2431.867 744.762 Q 2407.597 771.372 2407.597 815.233 Q 2407.597 859.095 2431.867 885.704 L 2431.867 885.704 L 2431.867 885.704 Z  M 2219.202 708.503 L 2373.302 708.503 L 2373.302 721.369 L 2303.416 721.369 L 2303.416 921.963 L 2288.796 921.963 L 2288.796 721.369 L 2219.202 721.369 L 2219.202 708.503 L 2219.202 708.503 Z  M 2570.762 894.769 Q 2542.398 924.887 2495.905 924.887 Q 2449.412 924.887 2421.048 894.769 Q 2392.684 864.651 2392.684 815.233 Q 2392.684 765.816 2421.048 735.698 Q 2449.412 705.579 2495.905 705.579 Q 2542.398 705.579 2570.762 735.698 Q 2599.418 765.816 2599.418 815.233 Q 2599.418 864.651 2570.762 894.769 L 2570.762 894.769 L 2570.762 894.769 Z  M 1991.231 708.503 L 1991.231 800.028 L 2114.044 800.028 L 2114.044 708.503 L 2128.664 708.503 L 2128.664 921.963 L 2114.044 921.963 L 2114.044 812.309 L 1991.231 812.309 L 1991.231 921.963 L 1976.611 921.963 L 1976.611 708.503 L 1991.231 708.503 L 1991.231 708.503 L 1991.231 708.503 L 1991.231 708.503 Z  M 1868.565 718.153 Q 1846.049 718.153 1833.475 728.095 Q 1821.194 737.744 1821.194 755.289 Q 1821.194 787.454 1868.857 802.075 Q 1902.777 812.309 1917.69 827.807 Q 1932.603 843.305 1932.603 867.867 Q 1932.603 895.354 1915.643 910.267 Q 1898.976 924.887 1867.687 924.887 Q 1832.013 924.887 1804.819 905.296 L 1810.083 893.6 Q 1835.23 912.314 1867.687 912.314 Q 1892.25 912.314 1905.116 900.91 Q 1917.982 889.506 1917.982 867.867 Q 1917.982 848.276 1906.286 836.287 Q 1894.882 824.006 1867.687 815.526 Q 1806.866 797.396 1806.866 755.289 Q 1806.866 732.773 1822.949 719.322 Q 1839.324 705.579 1868.565 705.579 Q 1901.315 705.579 1928.509 719.615 L 1924.415 731.311 Q 1899.853 718.153 1868.565 718.153 L 1868.565 718.153 L 1868.565 718.153 L 1868.565 718.153 Z  M 1735.518 708.503 L 1750.138 708.503 L 1750.138 800.028 L 1750.138 812.309 L 1750.138 921.963 L 1735.518 921.963 L 1735.518 708.503 L 1735.518 708.503 L 1735.518 708.503 Z  M 1503.489 972.55 L 1503.489 972.55 L 1503.489 972.55 Q 1509.484 978.399 1520.303 978.399 L 1520.303 978.399 L 1520.303 978.399 Q 1531.122 978.399 1537.263 972.55 L 1537.263 972.55 L 1537.263 972.55 Q 1543.403 966.702 1543.403 956.175 L 1543.403 956.175 L 1543.403 956.175 Q 1543.403 947.988 1539.456 937.169 L 1539.456 937.169 L 1539.456 937.169 Q 1535.509 926.35 1520.595 895.646 L 1520.595 895.646 L 1520.011 895.646 L 1520.011 895.646 Q 1505.39 926.057 1501.443 936.876 L 1501.443 936.876 L 1501.443 936.876 Q 1497.495 947.696 1497.495 956.175 L 1497.495 956.175 L 1497.495 956.175 Q 1497.495 966.702 1503.489 972.55 L 1503.489 972.55 L 1503.489 972.55 L 1503.489 972.55 L 1503.489 972.55 Z  M 1601.835 724.452 L 1528.491 883.365 L 1528.491 883.365 Q 1546.035 918.747 1551.006 932.198 L 1551.006 932.198 L 1551.006 932.198 Q 1555.977 945.649 1555.977 956.175 L 1555.977 956.175 L 1555.977 956.175 Q 1555.977 971.673 1546.474 980.446 L 1546.474 980.446 L 1546.474 980.446 L 1546.474 980.446 Q 1536.971 989.218 1520.303 989.218 L 1520.303 989.218 L 1520.303 989.218 Q 1503.636 989.218 1494.278 980.446 L 1494.278 980.446 L 1494.278 980.446 Q 1484.921 971.673 1484.921 956.175 L 1484.921 956.175 L 1484.921 956.175 Q 1484.921 945.649 1489.892 932.198 L 1489.892 932.198 L 1489.892 932.198 Q 1494.863 918.747 1512.408 883.365 L 1512.408 883.365 L 1439.064 724.452 L 1439.064 724.452 L 1367.372 921.963 L 1351.582 921.963 L 1431.702 708.503 L 1447.493 708.503 L 1520.303 870.207 L 1520.888 870.207 L 1593.698 708.503 L 1609.196 708.503 L 1689.317 921.963 L 1673.526 921.963 L 1601.835 724.452 L 1601.835 724.452 L 1601.835 724.452 Z " fill-rule="evenodd" fill="rgb(255,255,255)"/></g></g></svg>
