<?xml version="1.0" standalone="no"?><svg xmlns="http://www.w3.org/2000/svg" xmlns:xlink="http://www.w3.org/1999/xlink" style="isolation:isolate" viewBox="-1154 320 2019 1054.797" width="2019" height="1054.797"><g><path d=" M -1154 320 L 865 320 L 865 1374.797 L -1154 1374.797 L -1154 320 Z " fill="rgb(36,33,36)"/><g><path d=" M 45.69 815.233 C 45.69 800.467 57.679 788.478 72.446 788.478 C 87.213 788.478 99.202 800.467 99.202 815.233 C 99.202 830 87.213 841.989 72.446 841.989 C 57.679 841.989 45.69 830 45.69 815.233 Z " fill="rgb(255,255,255)"/><path d=" M 311.867 885.704 Q 336.137 912.314 375.905 912.314 Q 415.673 912.314 439.943 885.704 Q 464.505 859.095 464.505 815.233 Q 464.505 771.372 439.943 744.762 Q 415.673 718.153 375.905 718.153 Q 336.137 718.153 311.867 744.762 Q 287.597 771.372 287.597 815.233 Q 287.597 859.095 311.867 885.704 L 311.867 885.704 L 311.867 885.704 Z  M 99.202 708.503 L 253.302 708.503 L 253.302 721.369 L 183.416 721.369 L 183.416 921.963 L 168.796 921.963 L 168.796 721.369 L 99.202 721.369 L 99.202 708.503 L 99.202 708.503 Z  M 450.762 894.769 Q 422.398 924.887 375.905 924.887 Q 329.412 924.887 301.048 894.769 Q 272.684 864.651 272.684 815.233 Q 272.684 765.816 301.048 735.698 Q 329.412 705.579 375.905 705.579 Q 422.398 705.579 450.762 735.698 Q 479.418 765.816 479.418 815.233 Q 479.418 864.651 450.762 894.769 L 450.762 894.769 L 450.762 894.769 Z  M -128.769 708.503 L -128.769 800.028 L -5.956 800.028 L -5.956 708.503 L 8.664 708.503 L 8.664 921.963 L -5.956 921.963 L -5.956 812.309 L -128.769 812.309 L -128.769 921.963 L -143.389 921.963 L -143.389 708.503 L -128.769 708.503 L -128.769 708.503 L -128.769 708.503 L -128.769 708.503 Z  M -251.435 718.153 Q -273.951 718.153 -286.525 728.095 Q -298.806 737.744 -298.806 755.289 Q -298.806 787.454 -251.143 802.075 Q -217.223 812.309 -202.31 827.807 Q -187.397 843.305 -187.397 867.867 Q -187.397 895.354 -204.357 910.267 Q -221.024 924.887 -252.313 924.887 Q -287.987 924.887 -315.181 905.296 L -309.917 893.6 Q -284.77 912.314 -252.313 912.314 Q -227.75 912.314 -214.884 900.91 Q -202.018 889.506 -202.018 867.867 Q -202.018 848.276 -213.714 836.287 Q -225.118 824.006 -252.313 815.526 Q -313.134 797.396 -313.134 755.289 Q -313.134 732.773 -297.051 719.322 Q -280.676 705.579 -251.435 705.579 Q -218.685 705.579 -191.491 719.615 L -195.585 731.311 Q -220.147 718.153 -251.435 718.153 L -251.435 718.153 L -251.435 718.153 L -251.435 718.153 Z  M -384.482 708.503 L -369.862 708.503 L -369.862 800.028 L -369.862 812.309 L -369.862 921.963 L -384.482 921.963 L -384.482 708.503 L -384.482 708.503 L -384.482 708.503 Z  M -616.511 972.55 L -616.511 972.55 L -616.511 972.55 Q -610.516 978.399 -599.697 978.399 L -599.697 978.399 L -599.697 978.399 Q -588.878 978.399 -582.737 972.55 L -582.737 972.55 L -582.737 972.55 Q -576.597 966.702 -576.597 956.175 L -576.597 956.175 L -576.597 956.175 Q -576.597 947.988 -580.544 937.169 L -580.544 937.169 L -580.544 937.169 Q -584.491 926.35 -599.405 895.646 L -599.405 895.646 L -599.989 895.646 L -599.989 895.646 Q -614.61 926.057 -618.557 936.876 L -618.557 936.876 L -618.557 936.876 Q -622.505 947.696 -622.505 956.175 L -622.505 956.175 L -622.505 956.175 Q -622.505 966.702 -616.511 972.55 L -616.511 972.55 L -616.511 972.55 L -616.511 972.55 L -616.511 972.55 Z  M -518.165 724.452 L -591.509 883.365 L -591.509 883.365 Q -573.965 918.747 -568.994 932.198 L -568.994 932.198 L -568.994 932.198 Q -564.023 945.649 -564.023 956.175 L -564.023 956.175 L -564.023 956.175 Q -564.023 971.673 -573.526 980.446 L -573.526 980.446 L -573.526 980.446 L -573.526 980.446 Q -583.029 989.218 -599.697 989.218 L -599.697 989.218 L -599.697 989.218 Q -616.364 989.218 -625.722 980.446 L -625.722 980.446 L -625.722 980.446 Q -635.079 971.673 -635.079 956.175 L -635.079 956.175 L -635.079 956.175 Q -635.079 945.649 -630.108 932.198 L -630.108 932.198 L -630.108 932.198 Q -625.137 918.747 -607.592 883.365 L -607.592 883.365 L -680.936 724.452 L -680.936 724.452 L -752.628 921.963 L -768.418 921.963 L -688.298 708.503 L -672.507 708.503 L -599.697 870.207 L -599.112 870.207 L -526.302 708.503 L -510.804 708.503 L -430.683 921.963 L -446.474 921.963 L -518.165 724.452 L -518.165 724.452 L -518.165 724.452 Z " fill-rule="evenodd" fill="rgb(255,255,255)"/></g></g></svg>
