<?xml version="1.0" standalone="no"?><svg xmlns="http://www.w3.org/2000/svg" xmlns:xlink="http://www.w3.org/1999/xlink" style="isolation:isolate" viewBox="966 1486 2019 1122.928" width="2019" height="1122.928"><g><path d=" M 966 1486 L 2985 1486 L 2985 2608.928 L 966 2608.928 L 966 1486 Z " fill="rgb(36,33,36)"/><g><path d=" M 2165.691 1981.22 C 2165.691 1966.453 2177.68 1954.464 2192.447 1954.464 C 2207.214 1954.464 2219.202 1966.453 2219.202 1981.22 C 2219.202 1995.987 2207.214 2007.975 2192.447 2007.975 C 2177.68 2007.975 2165.691 1995.987 2165.691 1981.22 Z " fill="rgb(34,139,34)"/><path d=" M 1694.903 2171.901 L 1706.128 2199.18 L 1709.944 2208.103 L 1708.359 2211.99 C 1707.592 2213.957 1706.707 2215.301 1705.699 2216.021 C 1704.739 2216.789 1703.54 2217.174 1702.1 2217.174 C 1699.653 2217.174 1697.565 2216.404 1695.838 2214.868 L 1693.964 2220.843 C 1696.268 2222.522 1699.148 2223.363 1702.603 2223.363 C 1705.818 2223.363 1708.409 2222.522 1710.377 2220.843 C 1712.392 2219.163 1714.191 2216.261 1715.775 2212.134 L 1731.537 2171.901 L 1723.549 2171.901 L 1715.989 2193.852 L 1713.613 2201.268 L 1711.526 2194.502 L 1703.538 2171.901 L 1694.903 2171.901 L 1694.903 2171.901 L 1694.903 2171.901 L 1694.903 2171.901 L 1694.903 2171.901 L 1694.903 2171.901 L 1694.903 2171.901 Z  M 2304.219 2171.181 C 2300.716 2171.181 2297.621 2171.925 2294.934 2173.412 C 2292.247 2174.9 2290.137 2177.059 2288.601 2179.89 C 2287.114 2182.721 2286.37 2186.056 2286.37 2189.895 C 2286.37 2193.734 2287.114 2197.07 2288.601 2199.901 C 2290.137 2202.732 2292.269 2204.89 2295.004 2206.378 C 2297.739 2207.865 2300.883 2208.609 2304.434 2208.609 C 2308.464 2208.609 2311.826 2207.673 2314.513 2205.801 C 2317.248 2203.882 2319.118 2201.242 2320.125 2197.883 L 2313.142 2195.508 C 2312.662 2197.763 2311.681 2199.492 2310.194 2200.691 C 2308.706 2201.891 2306.737 2202.491 2304.289 2202.491 C 2301.075 2202.491 2298.557 2201.41 2296.734 2199.25 C 2294.958 2197.091 2294.07 2193.996 2294.07 2189.965 C 2294.07 2185.935 2294.958 2182.817 2296.734 2180.61 C 2298.509 2178.403 2301.027 2177.299 2304.289 2177.299 C 2308.608 2177.299 2311.392 2179.577 2312.64 2184.135 L 2319.911 2181.257 C 2318.711 2178.138 2316.816 2175.69 2314.225 2173.915 C 2311.634 2172.092 2308.298 2171.181 2304.219 2171.181 L 2304.219 2171.181 L 2304.219 2171.181 L 2304.219 2171.181 L 2304.219 2171.181 L 2304.219 2171.181 L 2304.219 2171.181 L 2304.219 2171.181 Z  M 2344.417 2177.299 C 2347.104 2177.299 2349.24 2178.092 2350.824 2179.675 C 2352.407 2181.211 2353.292 2183.417 2353.484 2186.296 L 2334.556 2186.296 C 2335.035 2183.369 2336.116 2181.137 2337.796 2179.601 C 2339.523 2178.066 2341.73 2177.299 2344.417 2177.299 L 2344.417 2177.299 L 2344.417 2177.299 L 2344.417 2177.299 L 2344.417 2177.299 L 2344.417 2177.299 L 2344.417 2177.299 L 2344.417 2177.299 Z  M 1654.775 2171.181 C 1652.04 2171.181 1649.619 2171.758 1647.508 2172.91 C 1645.396 2174.062 1643.764 2175.813 1642.612 2178.164 L 1642.254 2171.901 L 1635.414 2171.901 L 1635.414 2207.889 L 1643.118 2207.889 L 1643.118 2188.742 C 1643.118 2184.952 1644.077 2182.145 1645.996 2180.322 C 1647.916 2178.45 1650.219 2177.514 1652.906 2177.514 C 1658.04 2177.514 1660.606 2180.657 1660.606 2186.943 L 1660.606 2207.889 L 1668.309 2207.889 L 1668.309 2184.567 C 1668.309 2180.249 1667.036 2176.939 1664.493 2174.636 C 1661.998 2172.332 1658.758 2171.181 1654.775 2171.181 L 1654.775 2171.181 L 1654.775 2171.181 L 1654.775 2171.181 L 1654.775 2171.181 L 1654.775 2171.181 L 1654.775 2171.181 L 1654.775 2171.181 Z  M 1805.947 2171.181 C 1800.429 2171.181 1796.664 2173.58 1794.649 2178.378 L 1793.928 2171.901 L 1787.377 2171.901 L 1787.377 2207.889 L 1795.081 2207.889 L 1795.081 2188.816 C 1795.081 2186.513 1795.51 2184.543 1796.374 2182.912 C 1797.286 2181.28 1798.463 2180.059 1799.903 2179.243 C 1801.342 2178.427 1802.853 2178.02 1804.436 2178.02 C 1806.164 2178.02 1807.626 2178.235 1808.826 2178.667 L 1809.905 2171.901 C 1808.945 2171.421 1807.627 2171.181 1805.947 2171.181 L 1805.947 2171.181 L 1805.947 2171.181 L 1805.947 2171.181 L 1805.947 2171.181 L 1805.947 2171.181 L 1805.947 2171.181 L 1805.947 2171.181 Z  M 2084.632 2177.299 C 2087.319 2177.299 2089.456 2178.092 2091.039 2179.675 C 2092.623 2181.211 2093.508 2183.417 2093.7 2186.296 L 2074.771 2186.296 C 2075.251 2183.369 2076.332 2181.137 2078.011 2179.601 C 2079.739 2178.066 2081.945 2177.299 2084.632 2177.299 L 2084.632 2177.299 L 2084.632 2177.299 L 2084.632 2177.299 L 2084.632 2177.299 L 2084.632 2177.299 L 2084.632 2177.299 L 2084.632 2177.299 Z  M 1878.21 2171.181 C 1875.763 2171.181 1873.509 2171.758 1871.445 2172.91 C 1869.382 2174.014 1867.749 2175.691 1866.55 2177.946 L 1866.191 2171.901 L 1859.352 2171.901 L 1859.352 2207.889 L 1867.056 2207.889 L 1867.056 2188.742 C 1867.056 2186.199 1867.511 2184.089 1868.423 2182.409 C 1869.335 2180.73 1870.508 2179.505 1871.948 2178.737 C 1873.387 2177.921 1874.876 2177.514 1876.411 2177.514 C 1878.666 2177.514 1880.466 2178.188 1881.809 2179.531 C 1883.153 2180.875 1883.823 2182.963 1883.823 2185.794 L 1883.823 2207.889 L 1891.527 2207.889 L 1891.527 2188.31 C 1891.527 2184.951 1892.415 2182.315 1894.19 2180.396 C 1896.014 2178.476 1898.243 2177.514 1900.882 2177.514 C 1903.137 2177.514 1904.936 2178.188 1906.28 2179.531 C 1907.624 2180.875 1908.297 2182.963 1908.297 2185.794 L 1908.297 2207.889 L 1915.997 2207.889 L 1915.997 2184.567 C 1915.997 2181.64 1915.398 2179.171 1914.198 2177.155 C 1912.998 2175.14 1911.391 2173.652 1909.376 2172.692 C 1907.361 2171.684 1905.154 2171.181 1902.755 2171.181 C 1900.164 2171.181 1897.691 2171.806 1895.34 2173.054 C 1893.036 2174.254 1891.359 2175.979 1890.304 2178.234 C 1889.2 2175.931 1887.567 2174.18 1885.408 2172.98 C 1883.297 2171.781 1880.898 2171.181 1878.21 2171.181 L 1878.21 2171.181 L 1878.21 2171.181 L 1878.21 2171.181 L 1878.21 2171.181 L 1878.21 2171.181 L 1878.21 2171.181 L 1878.21 2171.181 Z  M 2187.893 2177.226 C 2191.059 2177.226 2193.533 2178.329 2195.308 2180.536 C 2197.131 2182.743 2198.042 2185.864 2198.042 2189.895 C 2198.042 2193.926 2197.131 2197.043 2195.308 2199.25 C 2193.533 2201.458 2191.059 2202.561 2187.893 2202.561 C 2184.678 2202.561 2182.16 2201.458 2180.337 2199.25 C 2178.561 2197.043 2177.673 2193.926 2177.673 2189.895 C 2177.673 2185.864 2178.561 2182.743 2180.337 2180.536 C 2182.16 2178.329 2184.678 2177.226 2187.893 2177.226 L 2187.893 2177.226 L 2187.893 2177.226 L 2187.893 2177.226 L 2187.893 2177.226 L 2187.893 2177.226 L 2187.893 2177.226 Z  M 2059.125 2171.181 C 2053.607 2171.181 2049.841 2173.58 2047.826 2178.378 L 2047.106 2171.901 L 2040.555 2171.901 L 2040.555 2207.889 L 2048.258 2207.889 L 2048.258 2188.816 C 2048.258 2186.513 2048.688 2184.543 2049.552 2182.912 C 2050.463 2181.28 2051.641 2180.059 2053.08 2179.243 C 2054.52 2178.427 2056.03 2178.02 2057.614 2178.02 C 2059.341 2178.02 2060.804 2178.235 2062.003 2178.667 L 2063.082 2171.901 C 2062.122 2171.421 2060.804 2171.181 2059.125 2171.181 L 2059.125 2171.181 L 2059.125 2171.181 L 2059.125 2171.181 L 2059.125 2171.181 L 2059.125 2171.181 L 2059.125 2171.181 L 2059.125 2171.181 Z  M 1831.813 2177.226 C 1834.98 2177.226 1837.453 2178.329 1839.229 2180.536 C 1841.052 2182.743 1841.963 2185.864 1841.963 2189.895 C 1841.963 2193.926 1841.052 2197.043 1839.229 2199.25 C 1837.453 2201.458 1834.98 2202.561 1831.813 2202.561 C 1828.598 2202.561 1826.081 2201.458 1824.257 2199.25 C 1822.482 2197.043 1821.593 2193.926 1821.593 2189.895 C 1821.593 2185.864 1822.482 2182.743 1824.257 2180.536 C 1826.081 2178.329 1828.598 2177.226 1831.813 2177.226 L 1831.813 2177.226 L 1831.813 2177.226 L 1831.813 2177.226 L 1831.813 2177.226 L 1831.813 2177.226 L 1831.813 2177.226 Z  M 2147.635 2171.181 C 2144.612 2171.181 2141.972 2171.684 2139.717 2172.692 C 2137.462 2173.7 2135.736 2175.069 2134.537 2176.797 C 2133.385 2178.476 2132.808 2180.298 2132.808 2182.265 C 2132.808 2184.952 2133.648 2187.159 2135.328 2188.886 C 2137.007 2190.566 2139.717 2191.765 2143.46 2192.485 L 2151.019 2194.07 C 2152.603 2194.406 2153.706 2194.91 2154.33 2195.581 C 2155.002 2196.253 2155.335 2197.094 2155.335 2198.101 C 2155.335 2199.445 2154.687 2200.522 2153.392 2201.338 C 2152.096 2202.106 2150.345 2202.491 2148.138 2202.491 C 2145.451 2202.491 2143.099 2201.913 2141.084 2200.762 C 2139.069 2199.61 2137.51 2198.029 2136.407 2196.014 L 2131.082 2200.617 C 2132.81 2203.161 2135.161 2205.13 2138.136 2206.522 C 2141.111 2207.913 2144.395 2208.609 2147.993 2208.609 C 2152.6 2208.609 2156.247 2207.554 2158.934 2205.443 C 2161.669 2203.331 2163.039 2200.522 2163.039 2197.019 C 2163.039 2194.62 2162.294 2192.654 2160.807 2191.118 C 2159.32 2189.535 2156.92 2188.405 2153.61 2187.734 L 2145.403 2186.008 C 2143.58 2185.624 2142.284 2185.095 2141.516 2184.423 C 2140.797 2183.703 2140.438 2182.841 2140.438 2181.833 C 2140.438 2180.489 2141.085 2179.412 2142.381 2178.596 C 2143.677 2177.733 2145.476 2177.299 2147.779 2177.299 C 2149.794 2177.299 2151.664 2177.803 2153.392 2178.811 C 2155.119 2179.77 2156.441 2181.162 2157.352 2182.986 L 2162.677 2178.522 C 2161.333 2176.171 2159.367 2174.372 2156.776 2173.124 C 2154.233 2171.829 2151.186 2171.181 2147.635 2171.181 L 2147.635 2171.181 L 2147.635 2171.181 L 2147.635 2171.181 L 2147.635 2171.181 L 2147.635 2171.181 L 2147.635 2171.181 L 2147.635 2171.181 Z  M 1607.876 2177.226 C 1611.043 2177.226 1613.516 2178.329 1615.291 2180.536 C 1617.114 2182.743 1618.025 2185.864 1618.025 2189.895 C 1618.025 2193.926 1617.114 2197.043 1615.291 2199.25 C 1613.516 2201.458 1611.043 2202.561 1607.876 2202.561 C 1604.661 2202.561 1602.143 2201.458 1600.32 2199.25 C 1598.544 2197.043 1597.656 2193.926 1597.656 2189.895 C 1597.656 2185.864 1598.544 2182.743 1600.32 2180.536 C 1602.143 2178.329 1604.661 2177.226 1607.876 2177.226 L 1607.876 2177.226 L 1607.876 2177.226 L 1607.876 2177.226 L 1607.876 2177.226 L 1607.876 2177.226 L 1607.876 2177.226 Z  M 1680.121 2155.707 L 1680.121 2207.889 L 1687.825 2207.889 L 1687.825 2155.707 L 1680.121 2155.707 L 1680.121 2155.707 L 1680.121 2155.707 L 1680.121 2155.707 L 1680.121 2155.707 L 1680.121 2155.707 L 1680.121 2155.707 Z  M 2278.423 2171.181 C 2272.905 2171.181 2269.14 2173.58 2267.125 2178.378 L 2266.404 2171.901 L 2259.853 2171.901 L 2259.853 2207.889 L 2267.557 2207.889 L 2267.557 2188.816 C 2267.557 2186.513 2267.987 2184.543 2268.85 2182.912 C 2269.762 2181.28 2270.939 2180.059 2272.379 2179.243 C 2273.818 2178.427 2275.329 2178.02 2276.912 2178.02 C 2278.64 2178.02 2280.102 2178.235 2281.302 2178.667 L 2282.381 2171.901 C 2281.421 2171.421 2280.103 2171.181 2278.423 2171.181 L 2278.423 2171.181 L 2278.423 2171.181 L 2278.423 2171.181 L 2278.423 2171.181 L 2278.423 2171.181 L 2278.423 2171.181 L 2278.423 2171.181 Z  M 1773.819 2155.204 C 1769.884 2155.204 1766.815 2156.211 1764.607 2158.227 C 1762.4 2160.242 1761.293 2163.071 1761.293 2166.718 L 1761.293 2171.901 L 1754.528 2171.901 L 1754.528 2177.946 L 1761.293 2177.946 L 1761.293 2207.889 L 1768.997 2207.889 L 1768.997 2177.946 L 1780.44 2177.946 L 1780.44 2171.901 L 1768.779 2171.901 L 1768.779 2167.294 C 1768.779 2163.407 1770.893 2161.464 1775.115 2161.464 C 1776.747 2161.464 1778.113 2161.8 1779.217 2162.472 L 1780.658 2156.93 C 1780.034 2156.402 1779.097 2155.995 1777.85 2155.707 C 1776.65 2155.371 1775.306 2155.204 1773.819 2155.204 L 1773.819 2155.204 L 1773.819 2155.204 L 1773.819 2155.204 L 1773.819 2155.204 L 1773.819 2155.204 L 1773.819 2155.204 L 1773.819 2155.204 Z  M 2215.143 2171.901 L 2215.143 2195.652 C 2215.143 2200.018 2216.369 2203.283 2218.816 2205.443 C 2221.263 2207.554 2224.406 2208.609 2228.245 2208.609 C 2234.243 2208.609 2238.415 2206.425 2240.767 2202.058 L 2241.129 2207.889 L 2247.894 2207.889 L 2247.894 2171.901 L 2240.19 2171.901 L 2240.19 2191.406 C 2240.19 2195.005 2239.279 2197.715 2237.456 2199.539 C 2235.633 2201.362 2233.4 2202.273 2230.761 2202.273 C 2228.122 2202.273 2226.134 2201.625 2224.79 2200.329 C 2223.495 2199.034 2222.847 2196.827 2222.847 2193.708 L 2222.847 2171.901 L 2215.143 2171.901 L 2215.143 2171.901 L 2215.143 2171.901 L 2215.143 2171.901 L 2215.143 2171.901 L 2215.143 2171.901 L 2215.143 2171.901 Z  M 1995.845 2171.901 L 1995.845 2195.652 C 1995.845 2200.018 1997.07 2203.283 1999.517 2205.443 C 2001.964 2207.554 2005.108 2208.609 2008.946 2208.609 C 2014.944 2208.609 2019.117 2206.425 2021.468 2202.058 L 2021.83 2207.889 L 2028.595 2207.889 L 2028.595 2171.901 L 2020.892 2171.901 L 2020.892 2191.406 C 2020.892 2195.005 2019.981 2197.715 2018.157 2199.539 C 2016.334 2201.362 2014.102 2202.273 2011.463 2202.273 C 2008.823 2202.273 2006.835 2201.625 2005.492 2200.329 C 2004.196 2199.034 2003.548 2196.827 2003.548 2193.708 L 2003.548 2171.901 L 1995.845 2171.901 L 1995.845 2171.901 L 1995.845 2171.901 L 1995.845 2171.901 L 1995.845 2171.901 L 1995.845 2171.901 L 1995.845 2171.901 Z  M 1968.787 2177.37 C 1971.858 2177.37 1974.257 2178.473 1975.985 2180.68 C 1977.712 2182.888 1978.575 2185.96 1978.575 2189.895 C 1978.575 2193.83 1977.686 2196.899 1975.911 2199.106 C 1974.183 2201.266 1971.762 2202.347 1968.643 2202.347 C 1965.62 2202.347 1963.195 2201.217 1961.372 2198.962 C 1959.596 2196.707 1958.711 2193.686 1958.711 2189.895 C 1958.711 2186.056 1959.622 2183.009 1961.446 2180.754 C 1963.317 2178.499 1965.764 2177.37 1968.787 2177.37 L 1968.787 2177.37 L 1968.787 2177.37 L 1968.787 2177.37 L 1968.787 2177.37 L 1968.787 2177.37 L 1968.787 2177.37 L 1968.787 2177.37 Z  M 2431.867 2051.691 Q 2456.137 2078.3 2495.905 2078.3 Q 2535.673 2078.3 2559.943 2051.691 Q 2584.506 2025.081 2584.506 1981.22 Q 2584.506 1937.358 2559.943 1910.749 Q 2535.673 1884.139 2495.905 1884.139 Q 2456.137 1884.139 2431.867 1910.749 Q 2407.597 1937.358 2407.597 1981.22 Q 2407.597 2025.081 2431.867 2051.691 L 2431.867 2051.691 L 2431.867 2051.691 L 2431.867 2051.691 L 2431.867 2051.691 L 2431.867 2051.691 L 2431.867 2051.691 Z  M 2219.202 1874.49 L 2373.303 1874.49 L 2373.303 1887.356 L 2303.417 1887.356 L 2303.417 2087.95 L 2288.796 2087.95 L 2288.796 1887.356 L 2219.202 1887.356 L 2219.202 1874.49 L 2219.202 1874.49 L 2219.202 1874.49 L 2219.202 1874.49 L 2219.202 1874.49 Z  M 1991.232 1874.49 L 1991.232 1966.014 L 2114.044 1966.014 L 2114.044 1874.49 L 2128.665 1874.49 L 2128.665 2087.95 L 2114.044 2087.95 L 2114.044 1978.296 L 1991.232 1978.296 L 1991.232 2087.95 L 1976.611 2087.95 L 1976.611 1874.49 L 1991.232 1874.49 L 1991.232 1874.49 L 1991.232 1874.49 L 1991.232 1874.49 Z  M 1868.565 1884.139 Q 1846.05 1884.139 1833.476 1894.081 Q 1821.195 1903.731 1821.195 1921.276 Q 1821.195 1953.441 1868.858 1968.061 Q 1902.777 1978.296 1917.69 1993.793 Q 1932.603 2009.291 1932.603 2033.854 Q 1932.603 2061.34 1915.643 2076.253 Q 1898.976 2090.874 1867.688 2090.874 Q 1832.014 2090.874 1804.82 2071.282 L 1810.083 2059.586 Q 1835.23 2078.3 1867.688 2078.3 Q 1892.251 2078.3 1905.117 2066.896 Q 1917.983 2055.492 1917.983 2033.854 Q 1917.983 2014.262 1906.286 2002.273 Q 1894.882 1989.992 1867.688 1981.512 Q 1806.867 1963.383 1806.867 1921.276 Q 1806.867 1898.76 1822.949 1885.309 Q 1839.324 1871.566 1868.565 1871.566 Q 1901.315 1871.566 1928.51 1885.601 L 1924.416 1897.298 Q 1899.853 1884.139 1868.565 1884.139 L 1868.565 1884.139 L 1868.565 1884.139 Z  M 1735.518 1874.49 L 1750.139 1874.49 L 1750.139 1966.014 L 1750.139 1978.296 L 1750.139 2087.95 L 1735.518 2087.95 L 1735.518 1874.49 L 1735.518 1874.49 Z  M 2187.893 2171.181 C 2184.39 2171.181 2181.272 2171.925 2178.537 2173.412 C 2175.85 2174.9 2173.74 2177.059 2172.204 2179.89 C 2170.717 2182.721 2169.973 2186.056 2169.973 2189.895 C 2169.973 2193.734 2170.717 2197.07 2172.204 2199.901 C 2173.74 2202.732 2175.85 2204.89 2178.537 2206.378 C 2181.272 2207.865 2184.39 2208.609 2187.893 2208.609 C 2191.395 2208.609 2194.49 2207.865 2197.178 2206.378 C 2199.865 2204.89 2201.953 2202.732 2203.44 2199.901 C 2204.976 2197.07 2205.742 2193.734 2205.742 2189.895 C 2205.742 2186.056 2204.976 2182.721 2203.44 2179.89 C 2201.953 2177.059 2199.865 2174.9 2197.178 2173.412 C 2194.49 2171.925 2191.395 2171.181 2187.893 2171.181 L 2187.893 2171.181 L 2187.893 2171.181 L 2187.893 2171.181 L 2187.893 2171.181 L 2187.893 2171.181 L 2187.893 2171.181 L 2187.893 2171.181 Z  M 2084.776 2171.181 C 2081.322 2171.181 2078.249 2171.925 2075.562 2173.412 C 2072.875 2174.9 2070.79 2177.059 2069.303 2179.89 C 2067.815 2182.721 2067.071 2186.056 2067.071 2189.895 C 2067.071 2193.734 2067.815 2197.07 2069.303 2199.901 C 2070.838 2202.732 2072.971 2204.89 2075.706 2206.378 C 2078.441 2207.865 2081.61 2208.609 2085.209 2208.609 C 2088.759 2208.609 2091.877 2207.865 2094.564 2206.378 C 2097.299 2204.89 2099.291 2202.828 2100.539 2200.189 L 2094.42 2197.307 C 2093.508 2198.986 2092.286 2200.282 2090.751 2201.194 C 2089.263 2202.058 2087.368 2202.491 2085.065 2202.491 C 2082.09 2202.491 2079.69 2201.602 2077.867 2199.827 C 2076.044 2198.051 2074.963 2195.508 2074.627 2192.197 L 2100.971 2192.197 C 2101.163 2190.757 2101.259 2189.269 2101.259 2187.734 C 2101.259 2184.567 2100.585 2181.738 2099.242 2179.243 C 2097.946 2176.748 2096.051 2174.778 2093.555 2173.339 C 2091.108 2171.899 2088.183 2171.181 2084.776 2171.181 L 2084.776 2171.181 L 2084.776 2171.181 L 2084.776 2171.181 L 2084.776 2171.181 L 2084.776 2171.181 L 2084.776 2171.181 L 2084.776 2171.181 Z  M 1970.513 2171.181 C 1967.73 2171.181 1965.26 2171.855 1963.101 2173.198 C 1960.942 2174.542 1959.309 2176.341 1958.205 2178.596 L 1957.847 2171.901 L 1951.008 2171.901 L 1951.008 2223.004 L 1958.711 2223.004 L 1958.711 2201.988 C 1959.815 2204.003 1961.374 2205.61 1963.389 2206.81 C 1965.404 2208.009 1967.707 2208.609 1970.298 2208.609 C 1973.273 2208.609 1975.961 2207.865 1978.36 2206.378 C 1980.808 2204.842 1982.725 2202.658 1984.117 2199.827 C 1985.556 2196.996 1986.275 2193.66 1986.275 2189.821 C 1986.275 2186.031 1985.579 2182.721 1984.187 2179.89 C 1982.796 2177.059 1980.904 2174.9 1978.504 2173.412 C 1976.105 2171.925 1973.44 2171.181 1970.513 2171.181 L 1970.513 2171.181 L 1970.513 2171.181 L 1970.513 2171.181 L 1970.513 2171.181 L 1970.513 2171.181 L 1970.513 2171.181 L 1970.513 2171.181 Z  M 1831.813 2171.181 C 1828.311 2171.181 1825.193 2171.925 1822.458 2173.412 C 1819.771 2174.9 1817.66 2177.059 1816.125 2179.89 C 1814.638 2182.721 1813.893 2186.056 1813.893 2189.895 C 1813.893 2193.734 1814.638 2197.07 1816.125 2199.901 C 1817.66 2202.732 1819.771 2204.89 1822.458 2206.378 C 1825.193 2207.865 1828.311 2208.609 1831.813 2208.609 C 1835.316 2208.609 1838.411 2207.865 1841.098 2206.378 C 1843.785 2204.89 1845.874 2202.732 1847.361 2199.901 C 1848.896 2197.07 1849.663 2193.734 1849.663 2189.895 C 1849.663 2186.056 1848.896 2182.721 1847.361 2179.89 C 1845.874 2177.059 1843.785 2174.9 1841.098 2173.412 C 1838.411 2171.925 1835.316 2171.181 1831.813 2171.181 L 1831.813 2171.181 L 1831.813 2171.181 L 1831.813 2171.181 L 1831.813 2171.181 L 1831.813 2171.181 L 1831.813 2171.181 L 1831.813 2171.181 Z  M 1607.876 2171.181 C 1604.373 2171.181 1601.255 2171.925 1598.52 2173.412 C 1595.833 2174.9 1593.723 2177.059 1592.187 2179.89 C 1590.7 2182.721 1589.956 2186.056 1589.956 2189.895 C 1589.956 2193.734 1590.7 2197.07 1592.187 2199.901 C 1593.723 2202.732 1595.833 2204.89 1598.52 2206.378 C 1601.255 2207.865 1604.373 2208.609 1607.876 2208.609 C 1611.378 2208.609 1614.474 2207.865 1617.161 2206.378 C 1619.848 2204.89 1621.936 2202.732 1623.423 2199.901 C 1624.959 2197.07 1625.725 2193.734 1625.725 2189.895 C 1625.725 2186.056 1624.959 2182.721 1623.423 2179.89 C 1621.936 2177.059 1619.848 2174.9 1617.161 2173.412 C 1614.474 2171.925 1611.378 2171.181 1607.876 2171.181 L 1607.876 2171.181 L 1607.876 2171.181 L 1607.876 2171.181 L 1607.876 2171.181 L 1607.876 2171.181 L 1607.876 2171.181 L 1607.876 2171.181 Z  M 2344.561 2171.181 C 2341.106 2171.181 2338.037 2171.925 2335.35 2173.412 C 2332.663 2174.9 2330.575 2177.059 2329.087 2179.89 C 2327.6 2182.721 2326.855 2186.056 2326.855 2189.895 C 2326.855 2193.734 2327.6 2197.07 2329.087 2199.901 C 2330.623 2202.732 2332.759 2204.89 2335.494 2206.378 C 2338.229 2207.865 2341.395 2208.609 2344.993 2208.609 C 2348.544 2208.609 2351.662 2207.865 2354.349 2206.378 C 2357.084 2204.89 2359.075 2202.828 2360.323 2200.189 L 2354.205 2197.307 C 2353.293 2198.986 2352.071 2200.282 2350.536 2201.194 C 2349.048 2202.058 2347.152 2202.491 2344.849 2202.491 C 2341.874 2202.491 2339.475 2201.602 2337.652 2199.827 C 2335.828 2198.051 2334.747 2195.508 2334.411 2192.197 L 2360.755 2192.197 C 2360.947 2190.757 2361.044 2189.269 2361.044 2187.734 C 2361.044 2184.567 2360.37 2181.738 2359.026 2179.243 C 2357.731 2176.748 2355.839 2174.778 2353.344 2173.339 C 2350.896 2171.899 2347.968 2171.181 2344.561 2171.181 L 2344.561 2171.181 L 2344.561 2171.181 L 2344.561 2171.181 L 2344.561 2171.181 L 2344.561 2171.181 L 2344.561 2171.181 L 2344.561 2171.181 Z  M 2570.763 2060.756 Q 2542.399 2090.874 2495.905 2090.874 Q 2449.412 2090.874 2421.048 2060.756 Q 2392.684 2030.637 2392.684 1981.22 Q 2392.684 1931.802 2421.048 1901.684 Q 2449.412 1871.566 2495.905 1871.566 Q 2542.399 1871.566 2570.763 1901.684 Q 2599.419 1931.802 2599.419 1981.22 Q 2599.419 2030.637 2570.763 2060.756 L 2570.763 2060.756 L 2570.763 2060.756 L 2570.763 2060.756 L 2570.763 2060.756 L 2570.763 2060.756 L 2570.763 2060.756 Z  M 1503.49 2138.537 L 1503.49 2138.537 L 1503.49 2138.537 Q 1509.484 2144.385 1520.303 2144.385 L 1520.303 2144.385 L 1520.303 2144.385 Q 1531.123 2144.385 1537.263 2138.537 L 1537.263 2138.537 L 1537.263 2138.537 Q 1543.404 2132.689 1543.404 2122.162 L 1543.404 2122.162 L 1543.404 2122.162 Q 1543.404 2113.974 1539.457 2103.155 L 1539.457 2103.155 L 1539.457 2103.155 Q 1535.509 2092.336 1520.596 2061.633 L 1520.596 2061.633 L 1520.011 2061.633 L 1520.011 2061.633 Q 1505.391 2092.044 1501.443 2102.863 L 1501.443 2102.863 L 1501.443 2102.863 Q 1497.496 2113.682 1497.496 2122.162 L 1497.496 2122.162 L 1497.496 2122.162 Q 1497.496 2132.689 1503.49 2138.537 L 1503.49 2138.537 L 1503.49 2138.537 L 1503.49 2138.537 Z  M 1601.835 1890.439 L 1528.491 2049.352 L 1528.491 2049.352 Q 1546.036 2084.733 1551.007 2098.184 L 1551.007 2098.184 L 1551.007 2098.184 Q 1555.978 2111.635 1555.978 2122.162 L 1555.978 2122.162 L 1555.978 2122.162 Q 1555.978 2137.66 1546.474 2146.432 L 1546.474 2146.432 L 1546.474 2146.432 L 1546.474 2146.432 Q 1536.971 2155.204 1520.303 2155.204 L 1520.303 2155.204 L 1520.303 2155.204 Q 1503.636 2155.204 1494.279 2146.432 L 1494.279 2146.432 L 1494.279 2146.432 Q 1484.922 2137.66 1484.922 2122.162 L 1484.922 2122.162 L 1484.922 2122.162 Q 1484.922 2111.635 1489.893 2098.184 L 1489.893 2098.184 L 1489.893 2098.184 Q 1494.864 2084.733 1512.408 2049.352 L 1512.408 2049.352 L 1439.064 1890.439 L 1439.064 1890.439 L 1367.372 2087.95 L 1351.582 2087.95 L 1431.703 1874.49 L 1447.493 1874.49 L 1520.303 2036.193 L 1520.888 2036.193 L 1593.699 1874.49 L 1609.196 1874.49 L 1689.317 2087.95 L 1673.527 2087.95 L 1601.835 1890.439 L 1601.835 1890.439 Z " fill-rule="evenodd" fill="rgb(255,255,255)"/></g></g></svg>
