<?xml version="1.0" standalone="no"?><svg xmlns="http://www.w3.org/2000/svg" xmlns:xlink="http://www.w3.org/1999/xlink" style="isolation:isolate" viewBox="819 10.364 2019 1054.796" width="2019" height="1054.796"><g><path d=" M 819 10.364 L 2838 10.364 L 2838 1065.161 L 819 1065.161 L 819 10.364 Z " fill="rgb(255,255,255)"/><g><path d=" M 2018.69 505.597 C 2018.69 490.831 2030.679 478.842 2045.446 478.842 C 2060.213 478.842 2072.202 490.831 2072.202 505.597 C 2072.202 520.364 2060.213 532.353 2045.446 532.353 C 2030.679 532.353 2018.69 520.364 2018.69 505.597 Z " fill="rgb(34,139,34)"/><path d=" M 2284.867 576.068 Q 2309.137 602.678 2348.905 602.678 Q 2388.673 602.678 2412.943 576.068 Q 2437.505 549.459 2437.505 505.597 Q 2437.505 461.736 2412.943 435.126 Q 2388.673 408.517 2348.905 408.517 Q 2309.137 408.517 2284.867 435.126 Q 2260.597 461.736 2260.597 505.597 Q 2260.597 549.459 2284.867 576.068 L 2284.867 576.068 L 2284.867 576.068 Z  M 2072.202 398.867 L 2226.302 398.867 L 2226.302 411.733 L 2156.416 411.733 L 2156.416 612.327 L 2141.796 612.327 L 2141.796 411.733 L 2072.202 411.733 L 2072.202 398.867 L 2072.202 398.867 Z  M 2423.762 585.133 Q 2395.398 615.251 2348.905 615.251 Q 2302.412 615.251 2274.048 585.133 Q 2245.684 555.015 2245.684 505.597 Q 2245.684 456.18 2274.048 426.062 Q 2302.412 395.943 2348.905 395.943 Q 2395.398 395.943 2423.762 426.062 Q 2452.418 456.18 2452.418 505.597 Q 2452.418 555.015 2423.762 585.133 L 2423.762 585.133 L 2423.762 585.133 Z  M 1844.231 398.867 L 1844.231 490.392 L 1967.044 490.392 L 1967.044 398.867 L 1981.664 398.867 L 1981.664 612.327 L 1967.044 612.327 L 1967.044 502.673 L 1844.231 502.673 L 1844.231 612.327 L 1829.611 612.327 L 1829.611 398.867 L 1844.231 398.867 L 1844.231 398.867 L 1844.231 398.867 L 1844.231 398.867 Z  M 1721.565 408.517 Q 1699.049 408.517 1686.475 418.459 Q 1674.194 428.108 1674.194 445.653 Q 1674.194 477.818 1721.857 492.439 Q 1755.777 502.673 1770.69 518.171 Q 1785.603 533.669 1785.603 558.231 Q 1785.603 585.718 1768.643 600.631 Q 1751.976 615.251 1720.687 615.251 Q 1685.013 615.251 1657.819 595.66 L 1663.083 583.964 Q 1688.23 602.678 1720.687 602.678 Q 1745.25 602.678 1758.116 591.274 Q 1770.982 579.87 1770.982 558.231 Q 1770.982 538.64 1759.286 526.651 Q 1747.882 514.37 1720.687 505.89 Q 1659.866 487.76 1659.866 445.653 Q 1659.866 423.137 1675.949 409.686 Q 1692.324 395.943 1721.565 395.943 Q 1754.315 395.943 1781.509 409.979 L 1777.415 421.675 Q 1752.853 408.517 1721.565 408.517 L 1721.565 408.517 L 1721.565 408.517 L 1721.565 408.517 Z  M 1588.518 398.867 L 1603.138 398.867 L 1603.138 490.392 L 1603.138 502.673 L 1603.138 612.327 L 1588.518 612.327 L 1588.518 398.867 L 1588.518 398.867 L 1588.518 398.867 Z  M 1356.489 662.914 L 1356.489 662.914 L 1356.489 662.914 Q 1362.484 668.763 1373.303 668.763 L 1373.303 668.763 L 1373.303 668.763 Q 1384.122 668.763 1390.263 662.914 L 1390.263 662.914 L 1390.263 662.914 Q 1396.403 657.066 1396.403 646.539 L 1396.403 646.539 L 1396.403 646.539 Q 1396.403 638.352 1392.456 627.533 L 1392.456 627.533 L 1392.456 627.533 Q 1388.509 616.714 1373.595 586.01 L 1373.595 586.01 L 1373.011 586.01 L 1373.011 586.01 Q 1358.39 616.421 1354.443 627.24 L 1354.443 627.24 L 1354.443 627.24 Q 1350.495 638.06 1350.495 646.539 L 1350.495 646.539 L 1350.495 646.539 Q 1350.495 657.066 1356.489 662.914 L 1356.489 662.914 L 1356.489 662.914 L 1356.489 662.914 L 1356.489 662.914 Z  M 1454.835 414.816 L 1381.491 573.729 L 1381.491 573.729 Q 1399.035 609.111 1404.006 622.562 L 1404.006 622.562 L 1404.006 622.562 Q 1408.977 636.013 1408.977 646.539 L 1408.977 646.539 L 1408.977 646.539 Q 1408.977 662.037 1399.474 670.81 L 1399.474 670.81 L 1399.474 670.81 L 1399.474 670.81 Q 1389.971 679.582 1373.303 679.582 L 1373.303 679.582 L 1373.303 679.582 Q 1356.636 679.582 1347.278 670.81 L 1347.278 670.81 L 1347.278 670.81 Q 1337.921 662.037 1337.921 646.539 L 1337.921 646.539 L 1337.921 646.539 Q 1337.921 636.013 1342.892 622.562 L 1342.892 622.562 L 1342.892 622.562 Q 1347.863 609.111 1365.408 573.729 L 1365.408 573.729 L 1292.064 414.816 L 1292.064 414.816 L 1220.372 612.327 L 1204.582 612.327 L 1284.702 398.867 L 1300.493 398.867 L 1373.303 560.571 L 1373.888 560.571 L 1446.698 398.867 L 1462.196 398.867 L 1542.317 612.327 L 1526.526 612.327 L 1454.835 414.816 L 1454.835 414.816 L 1454.835 414.816 Z " fill-rule="evenodd" fill="rgb(36,33,36)"/></g></g></svg>
