<?xml version="1.0" standalone="no"?><svg xmlns="http://www.w3.org/2000/svg" xmlns:xlink="http://www.w3.org/1999/xlink" style="isolation:isolate" viewBox="908.551 470.051 2019 2019" width="2019" height="2019"><g><path d=" M 908.551 470.051 L 2927.551 470.051 L 2927.551 2489.051 L 908.551 2489.051 L 908.551 470.051 Z " fill="rgb(36,33,36)"/><path d=" M 2218.717 1019.943 L 1947.759 1607.023 L 1947.759 1607.023 Q 2012.575 1737.735 2030.939 1787.427 L 2030.939 1787.427 L 2030.939 1787.427 Q 2049.304 1837.12 2049.304 1876.009 L 2049.304 1876.009 L 2049.304 1876.009 Q 2049.304 1933.263 2014.196 1965.671 L 2014.196 1965.671 L 2014.196 1965.671 L 2014.196 1965.671 Q 1979.087 1998.079 1917.511 1998.079 L 1917.511 1998.079 L 1917.511 1998.079 Q 1855.936 1998.079 1821.367 1965.671 L 1821.367 1965.671 L 1821.367 1965.671 Q 1786.799 1933.263 1786.799 1876.009 L 1786.799 1876.009 L 1786.799 1876.009 Q 1786.799 1837.12 1805.163 1787.427 L 1805.163 1787.427 L 1805.163 1787.427 Q 1823.528 1737.735 1888.344 1607.023 L 1888.344 1607.023 L 1617.385 1019.942 L 1617.385 1019.942 L 1352.53 1749.618 L 1294.196 1749.618 L 1590.189 961.022 L 1648.524 961.022 L 1917.511 1558.41 L 1919.672 1558.41 L 2188.658 961.022 L 2245.913 961.022 L 2541.906 1749.618 L 2483.572 1749.618 L 2218.717 1019.943 Z  M 1855.396 1936.504 L 1855.396 1936.504 L 1855.396 1936.504 Q 1877.542 1958.11 1917.511 1958.11 L 1917.511 1958.11 L 1917.511 1958.11 Q 1957.482 1958.11 1980.167 1936.504 L 1980.167 1936.504 L 1980.167 1936.504 Q 2002.852 1914.899 2002.852 1876.009 L 2002.852 1876.009 L 2002.852 1876.009 Q 2002.852 1845.762 1988.269 1805.792 L 1988.269 1805.792 L 1988.269 1805.792 Q 1973.686 1765.822 1918.591 1652.394 L 1918.591 1652.394 L 1916.431 1652.394 L 1916.431 1652.394 Q 1862.418 1764.742 1847.834 1804.712 L 1847.834 1804.712 L 1847.834 1804.712 Q 1833.251 1844.681 1833.251 1876.009 L 1833.251 1876.009 L 1833.251 1876.009 Q 1833.251 1914.899 1855.396 1936.504 L 1855.396 1936.504 L 1855.396 1936.504 Z " fill-rule="evenodd" fill="rgb(255,255,255)"/></g></svg>