<?xml version="1.0" standalone="no"?><svg xmlns="http://www.w3.org/2000/svg" xmlns:xlink="http://www.w3.org/1999/xlink" style="isolation:isolate" viewBox="5177.46 -591 2019 1122.928" width="2019" height="1122.928"><g><path d=" M 5177.46 -591 L 7196.46 -591 L 7196.46 531.928 L 5177.46 531.928 L 5177.46 -591 Z " fill="rgb(255,255,255)"/><g><path d=" M 6377.151 -95.78 C 6377.151 -110.547 6389.14 -122.536 6403.907 -122.536 C 6418.674 -122.536 6430.662 -110.547 6430.662 -95.78 C 6430.662 -81.013 6418.674 -69.025 6403.907 -69.025 C 6389.14 -69.025 6377.151 -81.013 6377.151 -95.78 Z " fill="rgb(34,139,34)"/><path d=" M 5906.363 94.901 L 5917.588 122.18 L 5921.404 131.103 L 5919.819 134.99 C 5919.052 136.957 5918.167 138.301 5917.159 139.021 C 5916.199 139.789 5915 140.174 5913.56 140.174 C 5911.113 140.174 5909.025 139.404 5907.298 137.868 L 5905.424 143.843 C 5907.728 145.522 5910.608 146.363 5914.063 146.363 C 5917.278 146.363 5919.869 145.522 5921.837 143.843 C 5923.852 142.163 5925.651 139.261 5927.235 135.134 L 5942.997 94.901 L 5935.009 94.901 L 5927.449 116.852 L 5925.073 124.268 L 5922.986 117.502 L 5914.998 94.901 L 5906.363 94.901 L 5906.363 94.901 L 5906.363 94.901 L 5906.363 94.901 L 5906.363 94.901 L 5906.363 94.901 L 5906.363 94.901 Z  M 6515.679 94.181 C 6512.176 94.181 6509.081 94.925 6506.394 96.412 C 6503.707 97.9 6501.597 100.059 6500.061 102.89 C 6498.574 105.721 6497.83 109.056 6497.83 112.895 C 6497.83 116.734 6498.574 120.07 6500.061 122.901 C 6501.597 125.732 6503.729 127.89 6506.464 129.378 C 6509.199 130.865 6512.343 131.609 6515.894 131.609 C 6519.924 131.609 6523.286 130.673 6525.973 128.801 C 6528.708 126.882 6530.578 124.242 6531.585 120.883 L 6524.602 118.508 C 6524.122 120.763 6523.141 122.492 6521.654 123.691 C 6520.166 124.891 6518.197 125.491 6515.749 125.491 C 6512.535 125.491 6510.017 124.41 6508.194 122.25 C 6506.418 120.091 6505.53 116.996 6505.53 112.965 C 6505.53 108.935 6506.418 105.817 6508.194 103.61 C 6509.969 101.403 6512.487 100.299 6515.749 100.299 C 6520.068 100.299 6522.852 102.577 6524.1 107.135 L 6531.371 104.257 C 6530.171 101.138 6528.276 98.69 6525.685 96.915 C 6523.094 95.092 6519.758 94.181 6515.679 94.181 L 6515.679 94.181 L 6515.679 94.181 L 6515.679 94.181 L 6515.679 94.181 L 6515.679 94.181 L 6515.679 94.181 L 6515.679 94.181 Z  M 6555.877 100.299 C 6558.564 100.299 6560.7 101.092 6562.284 102.675 C 6563.867 104.211 6564.752 106.417 6564.944 109.296 L 6546.016 109.296 C 6546.495 106.369 6547.576 104.137 6549.256 102.601 C 6550.983 101.066 6553.19 100.299 6555.877 100.299 L 6555.877 100.299 L 6555.877 100.299 L 6555.877 100.299 L 6555.877 100.299 L 6555.877 100.299 L 6555.877 100.299 L 6555.877 100.299 Z  M 5866.235 94.181 C 5863.5 94.181 5861.079 94.758 5858.968 95.91 C 5856.856 97.062 5855.224 98.813 5854.072 101.164 L 5853.714 94.901 L 5846.874 94.901 L 5846.874 130.889 L 5854.578 130.889 L 5854.578 111.742 C 5854.578 107.952 5855.537 105.145 5857.456 103.322 C 5859.376 101.45 5861.679 100.514 5864.366 100.514 C 5869.5 100.514 5872.066 103.657 5872.066 109.943 L 5872.066 130.889 L 5879.769 130.889 L 5879.769 107.567 C 5879.769 103.249 5878.496 99.939 5875.953 97.636 C 5873.458 95.332 5870.218 94.181 5866.235 94.181 L 5866.235 94.181 L 5866.235 94.181 L 5866.235 94.181 L 5866.235 94.181 L 5866.235 94.181 L 5866.235 94.181 L 5866.235 94.181 Z  M 6017.407 94.181 C 6011.889 94.181 6008.124 96.58 6006.109 101.378 L 6005.388 94.901 L 5998.837 94.901 L 5998.837 130.889 L 6006.541 130.889 L 6006.541 111.816 C 6006.541 109.513 6006.97 107.543 6007.834 105.912 C 6008.746 104.28 6009.923 103.059 6011.363 102.243 C 6012.802 101.427 6014.313 101.02 6015.896 101.02 C 6017.624 101.02 6019.086 101.235 6020.286 101.667 L 6021.365 94.901 C 6020.405 94.421 6019.087 94.181 6017.407 94.181 L 6017.407 94.181 L 6017.407 94.181 L 6017.407 94.181 L 6017.407 94.181 L 6017.407 94.181 L 6017.407 94.181 L 6017.407 94.181 Z  M 6296.092 100.299 C 6298.779 100.299 6300.916 101.092 6302.499 102.675 C 6304.083 104.211 6304.968 106.417 6305.16 109.296 L 6286.231 109.296 C 6286.711 106.369 6287.792 104.137 6289.471 102.601 C 6291.199 101.066 6293.405 100.299 6296.092 100.299 L 6296.092 100.299 L 6296.092 100.299 L 6296.092 100.299 L 6296.092 100.299 L 6296.092 100.299 L 6296.092 100.299 L 6296.092 100.299 Z  M 6089.67 94.181 C 6087.223 94.181 6084.969 94.758 6082.905 95.91 C 6080.842 97.014 6079.209 98.691 6078.01 100.946 L 6077.651 94.901 L 6070.812 94.901 L 6070.812 130.889 L 6078.516 130.889 L 6078.516 111.742 C 6078.516 109.199 6078.971 107.089 6079.883 105.409 C 6080.795 103.73 6081.968 102.505 6083.408 101.737 C 6084.847 100.921 6086.336 100.514 6087.871 100.514 C 6090.126 100.514 6091.926 101.188 6093.269 102.531 C 6094.613 103.875 6095.283 105.963 6095.283 108.794 L 6095.283 130.889 L 6102.987 130.889 L 6102.987 111.31 C 6102.987 107.951 6103.875 105.315 6105.65 103.396 C 6107.474 101.476 6109.703 100.514 6112.342 100.514 C 6114.597 100.514 6116.396 101.188 6117.74 102.531 C 6119.084 103.875 6119.757 105.963 6119.757 108.794 L 6119.757 130.889 L 6127.457 130.889 L 6127.457 107.567 C 6127.457 104.64 6126.858 102.171 6125.658 100.155 C 6124.458 98.14 6122.851 96.652 6120.836 95.692 C 6118.821 94.684 6116.614 94.181 6114.215 94.181 C 6111.624 94.181 6109.151 94.806 6106.8 96.054 C 6104.496 97.254 6102.819 98.979 6101.764 101.234 C 6100.66 98.931 6099.027 97.18 6096.868 95.98 C 6094.757 94.781 6092.358 94.181 6089.67 94.181 L 6089.67 94.181 L 6089.67 94.181 L 6089.67 94.181 L 6089.67 94.181 L 6089.67 94.181 L 6089.67 94.181 L 6089.67 94.181 Z  M 6399.353 100.226 C 6402.519 100.226 6404.993 101.329 6406.768 103.536 C 6408.591 105.743 6409.502 108.864 6409.502 112.895 C 6409.502 116.926 6408.591 120.043 6406.768 122.25 C 6404.993 124.458 6402.519 125.561 6399.353 125.561 C 6396.138 125.561 6393.62 124.458 6391.797 122.25 C 6390.021 120.043 6389.133 116.926 6389.133 112.895 C 6389.133 108.864 6390.021 105.743 6391.797 103.536 C 6393.62 101.329 6396.138 100.226 6399.353 100.226 L 6399.353 100.226 L 6399.353 100.226 L 6399.353 100.226 L 6399.353 100.226 L 6399.353 100.226 L 6399.353 100.226 Z  M 6270.585 94.181 C 6265.067 94.181 6261.301 96.58 6259.286 101.378 L 6258.566 94.901 L 6252.015 94.901 L 6252.015 130.889 L 6259.718 130.889 L 6259.718 111.816 C 6259.718 109.513 6260.148 107.543 6261.012 105.912 C 6261.923 104.28 6263.101 103.059 6264.54 102.243 C 6265.98 101.427 6267.49 101.02 6269.074 101.02 C 6270.801 101.02 6272.264 101.235 6273.463 101.667 L 6274.542 94.901 C 6273.582 94.421 6272.264 94.181 6270.585 94.181 L 6270.585 94.181 L 6270.585 94.181 L 6270.585 94.181 L 6270.585 94.181 L 6270.585 94.181 L 6270.585 94.181 L 6270.585 94.181 Z  M 6043.273 100.226 C 6046.44 100.226 6048.913 101.329 6050.689 103.536 C 6052.512 105.743 6053.423 108.864 6053.423 112.895 C 6053.423 116.926 6052.512 120.043 6050.689 122.25 C 6048.913 124.458 6046.44 125.561 6043.273 125.561 C 6040.058 125.561 6037.541 124.458 6035.717 122.25 C 6033.942 120.043 6033.053 116.926 6033.053 112.895 C 6033.053 108.864 6033.942 105.743 6035.717 103.536 C 6037.541 101.329 6040.058 100.226 6043.273 100.226 L 6043.273 100.226 L 6043.273 100.226 L 6043.273 100.226 L 6043.273 100.226 L 6043.273 100.226 L 6043.273 100.226 Z  M 6359.095 94.181 C 6356.072 94.181 6353.432 94.684 6351.177 95.692 C 6348.922 96.7 6347.196 98.069 6345.997 99.797 C 6344.845 101.476 6344.268 103.298 6344.268 105.265 C 6344.268 107.952 6345.108 110.159 6346.788 111.886 C 6348.467 113.566 6351.177 114.765 6354.92 115.485 L 6362.479 117.07 C 6364.063 117.406 6365.166 117.91 6365.79 118.581 C 6366.462 119.253 6366.795 120.094 6366.795 121.101 C 6366.795 122.445 6366.147 123.522 6364.852 124.338 C 6363.556 125.106 6361.805 125.491 6359.598 125.491 C 6356.911 125.491 6354.559 124.913 6352.544 123.762 C 6350.529 122.61 6348.97 121.029 6347.867 119.014 L 6342.542 123.617 C 6344.27 126.161 6346.621 128.13 6349.596 129.522 C 6352.571 130.913 6355.855 131.609 6359.453 131.609 C 6364.06 131.609 6367.707 130.554 6370.394 128.443 C 6373.129 126.331 6374.499 123.522 6374.499 120.019 C 6374.499 117.62 6373.754 115.654 6372.267 114.118 C 6370.78 112.535 6368.38 111.405 6365.07 110.734 L 6356.863 109.008 C 6355.04 108.624 6353.744 108.095 6352.976 107.423 C 6352.257 106.703 6351.898 105.841 6351.898 104.833 C 6351.898 103.489 6352.545 102.412 6353.841 101.596 C 6355.137 100.733 6356.936 100.299 6359.239 100.299 C 6361.254 100.299 6363.124 100.803 6364.852 101.811 C 6366.579 102.77 6367.901 104.162 6368.812 105.986 L 6374.137 101.522 C 6372.793 99.171 6370.827 97.372 6368.236 96.124 C 6365.693 94.829 6362.646 94.181 6359.095 94.181 L 6359.095 94.181 L 6359.095 94.181 L 6359.095 94.181 L 6359.095 94.181 L 6359.095 94.181 L 6359.095 94.181 L 6359.095 94.181 Z  M 5819.336 100.226 C 5822.503 100.226 5824.976 101.329 5826.751 103.536 C 5828.574 105.743 5829.485 108.864 5829.485 112.895 C 5829.485 116.926 5828.574 120.043 5826.751 122.25 C 5824.976 124.458 5822.503 125.561 5819.336 125.561 C 5816.121 125.561 5813.603 124.458 5811.78 122.25 C 5810.004 120.043 5809.116 116.926 5809.116 112.895 C 5809.116 108.864 5810.004 105.743 5811.78 103.536 C 5813.603 101.329 5816.121 100.226 5819.336 100.226 L 5819.336 100.226 L 5819.336 100.226 L 5819.336 100.226 L 5819.336 100.226 L 5819.336 100.226 L 5819.336 100.226 Z  M 5891.581 78.707 L 5891.581 130.889 L 5899.285 130.889 L 5899.285 78.707 L 5891.581 78.707 L 5891.581 78.707 L 5891.581 78.707 L 5891.581 78.707 L 5891.581 78.707 L 5891.581 78.707 L 5891.581 78.707 Z  M 6489.883 94.181 C 6484.365 94.181 6480.6 96.58 6478.585 101.378 L 6477.864 94.901 L 6471.313 94.901 L 6471.313 130.889 L 6479.017 130.889 L 6479.017 111.816 C 6479.017 109.513 6479.447 107.543 6480.31 105.912 C 6481.222 104.28 6482.399 103.059 6483.839 102.243 C 6485.278 101.427 6486.789 101.02 6488.372 101.02 C 6490.1 101.02 6491.562 101.235 6492.762 101.667 L 6493.841 94.901 C 6492.881 94.421 6491.563 94.181 6489.883 94.181 L 6489.883 94.181 L 6489.883 94.181 L 6489.883 94.181 L 6489.883 94.181 L 6489.883 94.181 L 6489.883 94.181 L 6489.883 94.181 Z  M 5985.279 78.204 C 5981.344 78.204 5978.275 79.211 5976.067 81.227 C 5973.86 83.242 5972.753 86.071 5972.753 89.718 L 5972.753 94.901 L 5965.988 94.901 L 5965.988 100.946 L 5972.753 100.946 L 5972.753 130.889 L 5980.457 130.889 L 5980.457 100.946 L 5991.9 100.946 L 5991.9 94.901 L 5980.239 94.901 L 5980.239 90.294 C 5980.239 86.407 5982.353 84.464 5986.575 84.464 C 5988.207 84.464 5989.573 84.8 5990.677 85.472 L 5992.118 79.93 C 5991.494 79.402 5990.557 78.995 5989.31 78.707 C 5988.11 78.371 5986.766 78.204 5985.279 78.204 L 5985.279 78.204 L 5985.279 78.204 L 5985.279 78.204 L 5985.279 78.204 L 5985.279 78.204 L 5985.279 78.204 L 5985.279 78.204 Z  M 6426.603 94.901 L 6426.603 118.652 C 6426.603 123.018 6427.829 126.283 6430.276 128.443 C 6432.723 130.554 6435.866 131.609 6439.705 131.609 C 6445.703 131.609 6449.875 129.425 6452.227 125.058 L 6452.589 130.889 L 6459.354 130.889 L 6459.354 94.901 L 6451.65 94.901 L 6451.65 114.406 C 6451.65 118.005 6450.739 120.715 6448.916 122.539 C 6447.093 124.362 6444.86 125.273 6442.221 125.273 C 6439.582 125.273 6437.594 124.625 6436.25 123.329 C 6434.955 122.034 6434.307 119.827 6434.307 116.708 L 6434.307 94.901 L 6426.603 94.901 L 6426.603 94.901 L 6426.603 94.901 L 6426.603 94.901 L 6426.603 94.901 L 6426.603 94.901 L 6426.603 94.901 Z  M 6207.305 94.901 L 6207.305 118.652 C 6207.305 123.018 6208.53 126.283 6210.977 128.443 C 6213.424 130.554 6216.568 131.609 6220.406 131.609 C 6226.404 131.609 6230.577 129.425 6232.928 125.058 L 6233.29 130.889 L 6240.055 130.889 L 6240.055 94.901 L 6232.352 94.901 L 6232.352 114.406 C 6232.352 118.005 6231.441 120.715 6229.617 122.539 C 6227.794 124.362 6225.562 125.273 6222.923 125.273 C 6220.283 125.273 6218.295 124.625 6216.952 123.329 C 6215.656 122.034 6215.008 119.827 6215.008 116.708 L 6215.008 94.901 L 6207.305 94.901 L 6207.305 94.901 L 6207.305 94.901 L 6207.305 94.901 L 6207.305 94.901 L 6207.305 94.901 L 6207.305 94.901 Z  M 6180.247 100.37 C 6183.318 100.37 6185.717 101.473 6187.445 103.68 C 6189.172 105.888 6190.035 108.96 6190.035 112.895 C 6190.035 116.83 6189.146 119.899 6187.371 122.106 C 6185.643 124.266 6183.222 125.347 6180.103 125.347 C 6177.08 125.347 6174.655 124.217 6172.832 121.962 C 6171.056 119.707 6170.171 116.686 6170.171 112.895 C 6170.171 109.056 6171.082 106.009 6172.906 103.754 C 6174.777 101.499 6177.224 100.37 6180.247 100.37 L 6180.247 100.37 L 6180.247 100.37 L 6180.247 100.37 L 6180.247 100.37 L 6180.247 100.37 L 6180.247 100.37 L 6180.247 100.37 Z  M 6643.327 -25.309 Q 6667.597 1.3 6707.365 1.3 Q 6747.133 1.3 6771.403 -25.309 Q 6795.966 -51.919 6795.966 -95.78 Q 6795.966 -139.642 6771.403 -166.251 Q 6747.133 -192.861 6707.365 -192.861 Q 6667.597 -192.861 6643.327 -166.251 Q 6619.057 -139.642 6619.057 -95.78 Q 6619.057 -51.919 6643.327 -25.309 L 6643.327 -25.309 L 6643.327 -25.309 L 6643.327 -25.309 L 6643.327 -25.309 L 6643.327 -25.309 L 6643.327 -25.309 Z  M 6430.662 -202.51 L 6584.763 -202.51 L 6584.763 -189.644 L 6514.877 -189.644 L 6514.877 10.95 L 6500.256 10.95 L 6500.256 -189.644 L 6430.662 -189.644 L 6430.662 -202.51 L 6430.662 -202.51 L 6430.662 -202.51 L 6430.662 -202.51 L 6430.662 -202.51 Z  M 6202.692 -202.51 L 6202.692 -110.986 L 6325.504 -110.986 L 6325.504 -202.51 L 6340.125 -202.51 L 6340.125 10.95 L 6325.504 10.95 L 6325.504 -98.704 L 6202.692 -98.704 L 6202.692 10.95 L 6188.071 10.95 L 6188.071 -202.51 L 6202.692 -202.51 L 6202.692 -202.51 L 6202.692 -202.51 L 6202.692 -202.51 Z  M 6080.025 -192.861 Q 6057.51 -192.861 6044.936 -182.919 Q 6032.655 -173.269 6032.655 -155.724 Q 6032.655 -123.559 6080.318 -108.939 Q 6114.237 -98.704 6129.15 -83.207 Q 6144.063 -67.709 6144.063 -43.146 Q 6144.063 -15.66 6127.103 -0.747 Q 6110.436 13.874 6079.148 13.874 Q 6043.474 13.874 6016.28 -5.718 L 6021.543 -17.414 Q 6046.69 1.3 6079.148 1.3 Q 6103.711 1.3 6116.577 -10.104 Q 6129.443 -21.508 6129.443 -43.146 Q 6129.443 -62.738 6117.746 -74.727 Q 6106.342 -87.008 6079.148 -95.488 Q 6018.327 -113.617 6018.327 -155.724 Q 6018.327 -178.24 6034.409 -191.691 Q 6050.784 -205.434 6080.025 -205.434 Q 6112.775 -205.434 6139.97 -191.399 L 6135.876 -179.702 Q 6111.313 -192.861 6080.025 -192.861 L 6080.025 -192.861 L 6080.025 -192.861 Z  M 5946.978 -202.51 L 5961.599 -202.51 L 5961.599 -110.986 L 5961.599 -98.704 L 5961.599 10.95 L 5946.978 10.95 L 5946.978 -202.51 L 5946.978 -202.51 Z  M 6399.353 94.181 C 6395.85 94.181 6392.732 94.925 6389.997 96.412 C 6387.31 97.9 6385.2 100.059 6383.664 102.89 C 6382.177 105.721 6381.433 109.056 6381.433 112.895 C 6381.433 116.734 6382.177 120.07 6383.664 122.901 C 6385.2 125.732 6387.31 127.89 6389.997 129.378 C 6392.732 130.865 6395.85 131.609 6399.353 131.609 C 6402.855 131.609 6405.95 130.865 6408.638 129.378 C 6411.325 127.89 6413.413 125.732 6414.9 122.901 C 6416.436 120.07 6417.202 116.734 6417.202 112.895 C 6417.202 109.056 6416.436 105.721 6414.9 102.89 C 6413.413 100.059 6411.325 97.9 6408.638 96.412 C 6405.95 94.925 6402.855 94.181 6399.353 94.181 L 6399.353 94.181 L 6399.353 94.181 L 6399.353 94.181 L 6399.353 94.181 L 6399.353 94.181 L 6399.353 94.181 L 6399.353 94.181 Z  M 6296.236 94.181 C 6292.782 94.181 6289.709 94.925 6287.022 96.412 C 6284.335 97.9 6282.25 100.059 6280.763 102.89 C 6279.275 105.721 6278.531 109.056 6278.531 112.895 C 6278.531 116.734 6279.275 120.07 6280.763 122.901 C 6282.298 125.732 6284.431 127.89 6287.166 129.378 C 6289.901 130.865 6293.07 131.609 6296.669 131.609 C 6300.219 131.609 6303.337 130.865 6306.024 129.378 C 6308.759 127.89 6310.751 125.828 6311.999 123.189 L 6305.88 120.307 C 6304.968 121.986 6303.746 123.282 6302.211 124.194 C 6300.723 125.058 6298.828 125.491 6296.525 125.491 C 6293.55 125.491 6291.15 124.602 6289.327 122.827 C 6287.504 121.051 6286.423 118.508 6286.087 115.197 L 6312.431 115.197 C 6312.623 113.757 6312.719 112.269 6312.719 110.734 C 6312.719 107.567 6312.045 104.738 6310.702 102.243 C 6309.406 99.748 6307.511 97.778 6305.015 96.339 C 6302.568 94.899 6299.643 94.181 6296.236 94.181 L 6296.236 94.181 L 6296.236 94.181 L 6296.236 94.181 L 6296.236 94.181 L 6296.236 94.181 L 6296.236 94.181 L 6296.236 94.181 Z  M 6181.973 94.181 C 6179.19 94.181 6176.72 94.855 6174.561 96.198 C 6172.402 97.542 6170.769 99.341 6169.665 101.596 L 6169.307 94.901 L 6162.468 94.901 L 6162.468 146.004 L 6170.171 146.004 L 6170.171 124.988 C 6171.275 127.003 6172.834 128.61 6174.849 129.81 C 6176.864 131.009 6179.167 131.609 6181.758 131.609 C 6184.733 131.609 6187.421 130.865 6189.82 129.378 C 6192.268 127.842 6194.185 125.658 6195.577 122.827 C 6197.016 119.996 6197.735 116.66 6197.735 112.821 C 6197.735 109.031 6197.039 105.721 6195.647 102.89 C 6194.256 100.059 6192.364 97.9 6189.964 96.412 C 6187.565 94.925 6184.9 94.181 6181.973 94.181 L 6181.973 94.181 L 6181.973 94.181 L 6181.973 94.181 L 6181.973 94.181 L 6181.973 94.181 L 6181.973 94.181 L 6181.973 94.181 Z  M 6043.273 94.181 C 6039.771 94.181 6036.653 94.925 6033.918 96.412 C 6031.231 97.9 6029.12 100.059 6027.585 102.89 C 6026.098 105.721 6025.353 109.056 6025.353 112.895 C 6025.353 116.734 6026.098 120.07 6027.585 122.901 C 6029.12 125.732 6031.231 127.89 6033.918 129.378 C 6036.653 130.865 6039.771 131.609 6043.273 131.609 C 6046.776 131.609 6049.871 130.865 6052.558 129.378 C 6055.245 127.89 6057.334 125.732 6058.821 122.901 C 6060.356 120.07 6061.123 116.734 6061.123 112.895 C 6061.123 109.056 6060.356 105.721 6058.821 102.89 C 6057.334 100.059 6055.245 97.9 6052.558 96.412 C 6049.871 94.925 6046.776 94.181 6043.273 94.181 L 6043.273 94.181 L 6043.273 94.181 L 6043.273 94.181 L 6043.273 94.181 L 6043.273 94.181 L 6043.273 94.181 L 6043.273 94.181 Z  M 5819.336 94.181 C 5815.833 94.181 5812.715 94.925 5809.98 96.412 C 5807.293 97.9 5805.183 100.059 5803.647 102.89 C 5802.16 105.721 5801.416 109.056 5801.416 112.895 C 5801.416 116.734 5802.16 120.07 5803.647 122.901 C 5805.183 125.732 5807.293 127.89 5809.98 129.378 C 5812.715 130.865 5815.833 131.609 5819.336 131.609 C 5822.838 131.609 5825.934 130.865 5828.621 129.378 C 5831.308 127.89 5833.396 125.732 5834.883 122.901 C 5836.419 120.07 5837.185 116.734 5837.185 112.895 C 5837.185 109.056 5836.419 105.721 5834.883 102.89 C 5833.396 100.059 5831.308 97.9 5828.621 96.412 C 5825.934 94.925 5822.838 94.181 5819.336 94.181 L 5819.336 94.181 L 5819.336 94.181 L 5819.336 94.181 L 5819.336 94.181 L 5819.336 94.181 L 5819.336 94.181 L 5819.336 94.181 Z  M 6556.021 94.181 C 6552.566 94.181 6549.497 94.925 6546.81 96.412 C 6544.123 97.9 6542.035 100.059 6540.547 102.89 C 6539.06 105.721 6538.315 109.056 6538.315 112.895 C 6538.315 116.734 6539.06 120.07 6540.547 122.901 C 6542.083 125.732 6544.219 127.89 6546.954 129.378 C 6549.689 130.865 6552.855 131.609 6556.453 131.609 C 6560.004 131.609 6563.122 130.865 6565.809 129.378 C 6568.544 127.89 6570.535 125.828 6571.783 123.189 L 6565.665 120.307 C 6564.753 121.986 6563.531 123.282 6561.996 124.194 C 6560.508 125.058 6558.612 125.491 6556.309 125.491 C 6553.334 125.491 6550.935 124.602 6549.112 122.827 C 6547.288 121.051 6546.207 118.508 6545.871 115.197 L 6572.215 115.197 C 6572.407 113.757 6572.504 112.269 6572.504 110.734 C 6572.504 107.567 6571.83 104.738 6570.486 102.243 C 6569.191 99.748 6567.299 97.778 6564.804 96.339 C 6562.356 94.899 6559.428 94.181 6556.021 94.181 L 6556.021 94.181 L 6556.021 94.181 L 6556.021 94.181 L 6556.021 94.181 L 6556.021 94.181 L 6556.021 94.181 L 6556.021 94.181 Z  M 6782.223 -16.244 Q 6753.859 13.874 6707.365 13.874 Q 6660.872 13.874 6632.508 -16.244 Q 6604.144 -46.363 6604.144 -95.78 Q 6604.144 -145.198 6632.508 -175.316 Q 6660.872 -205.434 6707.365 -205.434 Q 6753.859 -205.434 6782.223 -175.316 Q 6810.879 -145.198 6810.879 -95.78 Q 6810.879 -46.363 6782.223 -16.244 L 6782.223 -16.244 L 6782.223 -16.244 L 6782.223 -16.244 L 6782.223 -16.244 L 6782.223 -16.244 L 6782.223 -16.244 Z  M 5714.95 61.537 L 5714.95 61.537 L 5714.95 61.537 Q 5720.944 67.385 5731.763 67.385 L 5731.763 67.385 L 5731.763 67.385 Q 5742.583 67.385 5748.723 61.537 L 5748.723 61.537 L 5748.723 61.537 Q 5754.864 55.689 5754.864 45.162 L 5754.864 45.162 L 5754.864 45.162 Q 5754.864 36.974 5750.917 26.155 L 5750.917 26.155 L 5750.917 26.155 Q 5746.969 15.336 5732.056 -15.367 L 5732.056 -15.367 L 5731.471 -15.367 L 5731.471 -15.367 Q 5716.851 15.044 5712.903 25.863 L 5712.903 25.863 L 5712.903 25.863 Q 5708.956 36.682 5708.956 45.162 L 5708.956 45.162 L 5708.956 45.162 Q 5708.956 55.689 5714.95 61.537 L 5714.95 61.537 L 5714.95 61.537 L 5714.95 61.537 Z  M 5813.295 -186.561 L 5739.951 -27.648 L 5739.951 -27.648 Q 5757.496 7.733 5762.467 21.184 L 5762.467 21.184 L 5762.467 21.184 Q 5767.438 34.635 5767.438 45.162 L 5767.438 45.162 L 5767.438 45.162 Q 5767.438 60.66 5757.934 69.432 L 5757.934 69.432 L 5757.934 69.432 L 5757.934 69.432 Q 5748.431 78.204 5731.763 78.204 L 5731.763 78.204 L 5731.763 78.204 Q 5715.096 78.204 5705.739 69.432 L 5705.739 69.432 L 5705.739 69.432 Q 5696.382 60.66 5696.382 45.162 L 5696.382 45.162 L 5696.382 45.162 Q 5696.382 34.635 5701.353 21.184 L 5701.353 21.184 L 5701.353 21.184 Q 5706.324 7.733 5723.868 -27.648 L 5723.868 -27.648 L 5650.524 -186.561 L 5650.524 -186.561 L 5578.832 10.95 L 5563.042 10.95 L 5643.163 -202.51 L 5658.953 -202.51 L 5731.763 -40.807 L 5732.348 -40.807 L 5805.159 -202.51 L 5820.656 -202.51 L 5900.777 10.95 L 5884.987 10.95 L 5813.295 -186.561 L 5813.295 -186.561 Z " fill-rule="evenodd" fill="rgb(36,33,36)"/></g></g></svg>
