<?xml version="1.0" standalone="no"?><svg xmlns="http://www.w3.org/2000/svg" xmlns:xlink="http://www.w3.org/1999/xlink" style="isolation:isolate" viewBox="409 2284.5 2019 2019" width="2019" height="2019"><g><path d=" M 409 2284.5 L 2428 2284.5 L 2428 4303.5 L 409 4303.5 L 409 2284.5 Z " fill="rgb(255,255,255)"/><path d=" M 1719.166 2834.392 L 1448.208 3421.472 L 1448.208 3421.472 Q 1513.024 3552.184 1531.388 3601.876 L 1531.388 3601.876 L 1531.388 3601.876 Q 1549.753 3651.569 1549.753 3690.458 L 1549.753 3690.458 L 1549.753 3690.458 Q 1549.753 3747.712 1514.645 3780.12 L 1514.645 3780.12 L 1514.645 3780.12 L 1514.645 3780.12 Q 1479.536 3812.529 1417.96 3812.529 L 1417.96 3812.529 L 1417.96 3812.529 Q 1356.385 3812.529 1321.816 3780.12 L 1321.816 3780.12 L 1321.816 3780.12 Q 1287.248 3747.712 1287.248 3690.458 L 1287.248 3690.458 L 1287.248 3690.458 Q 1287.248 3651.569 1305.612 3601.876 L 1305.612 3601.876 L 1305.612 3601.876 Q 1323.977 3552.184 1388.793 3421.472 L 1388.793 3421.472 L 1117.834 2834.392 L 1117.834 2834.392 L 852.979 3564.067 L 794.645 3564.067 L 1090.638 2775.471 L 1148.973 2775.471 L 1417.96 3372.86 L 1420.121 3372.86 L 1689.107 2775.471 L 1746.362 2775.471 L 2042.355 3564.067 L 1984.021 3564.067 L 1719.166 2834.392 Z  M 1355.845 3750.953 L 1355.845 3750.953 L 1355.845 3750.953 Q 1377.991 3772.559 1417.96 3772.559 L 1417.96 3772.559 L 1417.96 3772.559 Q 1457.931 3772.559 1480.616 3750.953 L 1480.616 3750.953 L 1480.616 3750.953 Q 1503.301 3729.348 1503.301 3690.458 L 1503.301 3690.458 L 1503.301 3690.458 Q 1503.301 3660.211 1488.718 3620.241 L 1488.718 3620.241 L 1488.718 3620.241 Q 1474.135 3580.271 1419.04 3466.843 L 1419.04 3466.843 L 1416.88 3466.843 L 1416.88 3466.843 Q 1362.867 3579.191 1348.283 3619.161 L 1348.283 3619.161 L 1348.283 3619.161 Q 1333.7 3659.13 1333.7 3690.458 L 1333.7 3690.458 L 1333.7 3690.458 Q 1333.7 3729.348 1355.845 3750.953 L 1355.845 3750.953 L 1355.845 3750.953 Z " fill-rule="evenodd" fill="rgb(36,33,36)"/></g></svg>
