<?xml version="1.0" standalone="no"?><svg xmlns="http://www.w3.org/2000/svg" xmlns:xlink="http://www.w3.org/1999/xlink" style="isolation:isolate" viewBox="5177.46 -2107.939 2019 1122.928" width="2019" height="1122.928"><g><path d=" M 5177.46 -2107.939 L 7196.46 -2107.939 L 7196.46 -985.011 L 5177.46 -985.011 L 5177.46 -2107.939 Z " fill="rgb(255,255,255)"/><path d=" M 6426.603 -1422.038 L 6426.603 -1398.288 C 6426.603 -1393.921 6427.829 -1390.656 6430.276 -1388.496 C 6432.723 -1386.385 6435.866 -1385.33 6439.705 -1385.33 C 6445.703 -1385.33 6449.875 -1387.514 6452.227 -1391.881 L 6452.589 -1386.05 L 6459.354 -1386.05 L 6459.354 -1422.038 L 6451.65 -1422.038 L 6451.65 -1402.533 C 6451.65 -1398.934 6450.739 -1396.224 6448.916 -1394.401 C 6447.093 -1392.577 6444.86 -1391.667 6442.221 -1391.667 C 6439.582 -1391.667 6437.594 -1392.314 6436.25 -1393.61 C 6434.955 -1394.905 6434.307 -1397.112 6434.307 -1400.231 L 6434.307 -1422.038 L 6426.603 -1422.038 L 6426.603 -1422.038 L 6426.603 -1422.038 L 6426.603 -1422.038 L 6426.603 -1422.038 L 6426.603 -1422.038 L 6426.603 -1422.038 L 6426.603 -1422.038 Z  M 5906.363 -1422.038 L 5917.588 -1394.759 L 5921.404 -1385.836 L 5919.819 -1381.949 C 5919.052 -1379.982 5918.167 -1378.638 5917.159 -1377.918 C 5916.199 -1377.15 5915 -1376.765 5913.56 -1376.765 C 5911.113 -1376.765 5909.025 -1377.535 5907.298 -1379.071 L 5905.424 -1373.096 C 5907.728 -1371.417 5910.608 -1370.577 5914.063 -1370.577 C 5917.278 -1370.577 5919.869 -1371.417 5921.837 -1373.096 C 5923.852 -1374.776 5925.651 -1377.678 5927.235 -1381.805 L 5942.997 -1422.038 L 5935.009 -1422.038 L 5927.449 -1400.087 L 5925.074 -1392.672 L 5922.986 -1399.437 L 5914.998 -1422.038 L 5906.363 -1422.038 L 5906.363 -1422.038 L 5906.363 -1422.038 L 5906.363 -1422.038 L 5906.363 -1422.038 L 5906.363 -1422.038 L 5906.363 -1422.038 L 5906.363 -1422.038 Z  M 6555.877 -1416.64 C 6558.564 -1416.64 6560.7 -1415.848 6562.284 -1414.264 C 6563.867 -1412.729 6564.752 -1410.522 6564.944 -1407.643 L 6546.016 -1407.643 C 6546.495 -1410.57 6547.577 -1412.802 6549.256 -1414.338 C 6550.983 -1415.873 6553.19 -1416.64 6555.877 -1416.64 L 6555.877 -1416.64 L 6555.877 -1416.64 L 6555.877 -1416.64 L 6555.877 -1416.64 L 6555.877 -1416.64 L 6555.877 -1416.64 L 6555.877 -1416.64 L 6555.877 -1416.64 Z  M 5866.235 -1422.758 C 5863.5 -1422.758 5861.079 -1422.181 5858.967 -1421.029 C 5856.856 -1419.877 5855.224 -1418.126 5854.072 -1415.775 L 5853.714 -1422.038 L 5846.874 -1422.038 L 5846.874 -1386.05 L 5854.578 -1386.05 L 5854.578 -1405.197 C 5854.578 -1408.987 5855.537 -1411.794 5857.456 -1413.617 C 5859.376 -1415.489 5861.679 -1416.425 5864.366 -1416.425 C 5869.5 -1416.425 5872.066 -1413.282 5872.066 -1406.996 L 5872.066 -1386.05 L 5879.769 -1386.05 L 5879.769 -1409.372 C 5879.769 -1413.691 5878.496 -1417 5875.953 -1419.303 C 5873.458 -1421.607 5870.218 -1422.758 5866.235 -1422.758 L 5866.235 -1422.758 L 5866.235 -1422.758 L 5866.235 -1422.758 L 5866.235 -1422.758 L 5866.235 -1422.758 L 5866.235 -1422.758 L 5866.235 -1422.758 L 5866.235 -1422.758 Z  M 6017.407 -1422.758 C 6011.889 -1422.758 6008.124 -1420.359 6006.109 -1415.561 L 6005.388 -1422.038 L 5998.837 -1422.038 L 5998.837 -1386.05 L 6006.541 -1386.05 L 6006.541 -1405.123 C 6006.541 -1407.426 6006.97 -1409.396 6007.834 -1411.027 C 6008.746 -1412.659 6009.923 -1413.88 6011.363 -1414.696 C 6012.802 -1415.512 6014.313 -1415.919 6015.896 -1415.919 C 6017.623 -1415.919 6019.086 -1415.704 6020.286 -1415.272 L 6021.365 -1422.038 C 6020.405 -1422.518 6019.087 -1422.758 6017.407 -1422.758 L 6017.407 -1422.758 L 6017.407 -1422.758 L 6017.407 -1422.758 L 6017.407 -1422.758 L 6017.407 -1422.758 L 6017.407 -1422.758 L 6017.407 -1422.758 L 6017.407 -1422.758 Z  M 6296.092 -1416.64 C 6298.779 -1416.64 6300.916 -1415.848 6302.499 -1414.264 C 6304.083 -1412.729 6304.967 -1410.522 6305.159 -1407.643 L 6286.231 -1407.643 C 6286.711 -1410.57 6287.792 -1412.802 6289.471 -1414.338 C 6291.199 -1415.873 6293.405 -1416.64 6296.092 -1416.64 L 6296.092 -1416.64 L 6296.092 -1416.64 L 6296.092 -1416.64 L 6296.092 -1416.64 L 6296.092 -1416.64 L 6296.092 -1416.64 L 6296.092 -1416.64 L 6296.092 -1416.64 Z  M 6089.67 -1422.758 C 6087.223 -1422.758 6084.968 -1422.181 6082.905 -1421.029 C 6080.842 -1419.926 6079.209 -1418.248 6078.01 -1415.993 L 6077.651 -1422.038 L 6070.812 -1422.038 L 6070.812 -1386.05 L 6078.516 -1386.05 L 6078.516 -1405.197 C 6078.516 -1407.74 6078.971 -1409.85 6079.883 -1411.53 C 6080.795 -1413.209 6081.968 -1414.435 6083.408 -1415.203 C 6084.847 -1416.018 6086.336 -1416.425 6087.871 -1416.425 C 6090.126 -1416.425 6091.926 -1415.752 6093.269 -1414.408 C 6094.613 -1413.064 6095.283 -1410.977 6095.283 -1408.145 L 6095.283 -1386.05 L 6102.986 -1386.05 L 6102.986 -1405.629 C 6102.986 -1408.988 6103.875 -1411.624 6105.65 -1413.543 C 6107.474 -1415.463 6109.703 -1416.425 6112.342 -1416.425 C 6114.597 -1416.425 6116.396 -1415.752 6117.74 -1414.408 C 6119.084 -1413.064 6119.757 -1410.977 6119.757 -1408.145 L 6119.757 -1386.05 L 6127.457 -1386.05 L 6127.457 -1409.372 C 6127.457 -1412.299 6126.857 -1414.768 6125.658 -1416.784 C 6124.458 -1418.799 6122.851 -1420.288 6120.836 -1421.247 C 6118.821 -1422.255 6116.614 -1422.758 6114.215 -1422.758 C 6111.624 -1422.758 6109.151 -1422.133 6106.8 -1420.885 C 6104.497 -1419.685 6102.819 -1417.96 6101.764 -1415.705 C 6100.66 -1418.008 6099.027 -1419.759 6096.868 -1420.959 C 6094.757 -1422.158 6092.357 -1422.758 6089.67 -1422.758 L 6089.67 -1422.758 L 6089.67 -1422.758 L 6089.67 -1422.758 L 6089.67 -1422.758 L 6089.67 -1422.758 L 6089.67 -1422.758 L 6089.67 -1422.758 L 6089.67 -1422.758 Z  M 6399.352 -1416.713 C 6402.519 -1416.713 6404.993 -1415.61 6406.768 -1413.403 C 6408.591 -1411.196 6409.502 -1408.075 6409.502 -1404.044 C 6409.502 -1400.014 6408.591 -1396.896 6406.768 -1394.689 C 6404.993 -1392.481 6402.519 -1391.378 6399.352 -1391.378 C 6396.138 -1391.378 6393.62 -1392.481 6391.797 -1394.689 C 6390.021 -1396.896 6389.133 -1400.014 6389.133 -1404.044 C 6389.133 -1408.075 6390.021 -1411.196 6391.797 -1413.403 C 6393.62 -1415.61 6396.138 -1416.713 6399.352 -1416.713 L 6399.352 -1416.713 L 6399.352 -1416.713 L 6399.352 -1416.713 L 6399.352 -1416.713 L 6399.352 -1416.713 L 6399.352 -1416.713 L 6399.352 -1416.713 Z  M 6270.585 -1422.758 C 6265.067 -1422.758 6261.301 -1420.359 6259.286 -1415.561 L 6258.565 -1422.038 L 6252.015 -1422.038 L 6252.015 -1386.05 L 6259.718 -1386.05 L 6259.718 -1405.123 C 6259.718 -1407.426 6260.148 -1409.396 6261.012 -1411.027 C 6261.923 -1412.659 6263.1 -1413.88 6264.54 -1414.696 C 6265.98 -1415.512 6267.49 -1415.919 6269.074 -1415.919 C 6270.801 -1415.919 6272.264 -1415.704 6273.463 -1415.272 L 6274.542 -1422.038 C 6273.583 -1422.518 6272.264 -1422.758 6270.585 -1422.758 L 6270.585 -1422.758 L 6270.585 -1422.758 L 6270.585 -1422.758 L 6270.585 -1422.758 L 6270.585 -1422.758 L 6270.585 -1422.758 L 6270.585 -1422.758 L 6270.585 -1422.758 Z  M 6043.273 -1416.713 C 6046.44 -1416.713 6048.913 -1415.61 6050.689 -1413.403 C 6052.512 -1411.196 6053.423 -1408.075 6053.423 -1404.044 C 6053.423 -1400.014 6052.512 -1396.896 6050.689 -1394.689 C 6048.913 -1392.481 6046.44 -1391.378 6043.273 -1391.378 C 6040.058 -1391.378 6037.541 -1392.481 6035.717 -1394.689 C 6033.942 -1396.896 6033.053 -1400.014 6033.053 -1404.044 C 6033.053 -1408.075 6033.942 -1411.196 6035.717 -1413.403 C 6037.541 -1415.61 6040.058 -1416.713 6043.273 -1416.713 L 6043.273 -1416.713 L 6043.273 -1416.713 L 6043.273 -1416.713 L 6043.273 -1416.713 L 6043.273 -1416.713 L 6043.273 -1416.713 L 6043.273 -1416.713 Z  M 6359.095 -1422.758 C 6356.072 -1422.758 6353.432 -1422.255 6351.177 -1421.247 C 6348.922 -1420.239 6347.196 -1418.87 6345.997 -1417.142 C 6344.845 -1415.463 6344.268 -1413.641 6344.268 -1411.674 C 6344.268 -1408.987 6345.108 -1406.78 6346.788 -1405.053 C 6348.467 -1403.373 6351.177 -1402.174 6354.92 -1401.454 L 6362.479 -1399.869 C 6364.063 -1399.533 6365.166 -1399.03 6365.79 -1398.358 C 6366.462 -1397.686 6366.795 -1396.846 6366.795 -1395.838 C 6366.795 -1394.495 6366.147 -1393.417 6364.852 -1392.601 C 6363.556 -1391.834 6361.805 -1391.448 6359.597 -1391.448 C 6356.911 -1391.448 6354.56 -1392.026 6352.544 -1393.177 C 6350.529 -1394.329 6348.97 -1395.91 6347.866 -1397.926 L 6342.542 -1393.322 C 6344.269 -1390.778 6346.621 -1388.809 6349.595 -1387.417 C 6352.571 -1386.026 6355.855 -1385.33 6359.454 -1385.33 C 6364.06 -1385.33 6367.707 -1386.385 6370.394 -1388.496 C 6373.129 -1390.608 6374.499 -1393.418 6374.499 -1396.92 C 6374.499 -1399.319 6373.754 -1401.286 6372.267 -1402.821 C 6370.78 -1404.405 6368.381 -1405.534 6365.069 -1406.205 L 6356.863 -1407.931 C 6355.04 -1408.315 6353.744 -1408.844 6352.976 -1409.516 C 6352.257 -1410.236 6351.897 -1411.099 6351.897 -1412.106 C 6351.897 -1413.45 6352.546 -1414.527 6353.841 -1415.343 C 6355.137 -1416.207 6356.936 -1416.64 6359.239 -1416.64 C 6361.254 -1416.64 6363.124 -1416.136 6364.852 -1415.129 C 6366.579 -1414.169 6367.901 -1412.777 6368.812 -1410.953 L 6374.137 -1415.417 C 6372.793 -1417.768 6370.827 -1419.567 6368.236 -1420.815 C 6365.693 -1422.111 6362.646 -1422.758 6359.095 -1422.758 L 6359.095 -1422.758 L 6359.095 -1422.758 L 6359.095 -1422.758 L 6359.095 -1422.758 L 6359.095 -1422.758 L 6359.095 -1422.758 L 6359.095 -1422.758 L 6359.095 -1422.758 Z  M 5819.336 -1416.713 C 5822.502 -1416.713 5824.976 -1415.61 5826.751 -1413.403 C 5828.574 -1411.196 5829.485 -1408.075 5829.485 -1404.044 C 5829.485 -1400.014 5828.574 -1396.896 5826.751 -1394.689 C 5824.976 -1392.481 5822.502 -1391.378 5819.336 -1391.378 C 5816.121 -1391.378 5813.603 -1392.481 5811.78 -1394.689 C 5810.004 -1396.896 5809.116 -1400.014 5809.116 -1404.044 C 5809.116 -1408.075 5810.004 -1411.196 5811.78 -1413.403 C 5813.603 -1415.61 5816.121 -1416.713 5819.336 -1416.713 L 5819.336 -1416.713 L 5819.336 -1416.713 L 5819.336 -1416.713 L 5819.336 -1416.713 L 5819.336 -1416.713 L 5819.336 -1416.713 L 5819.336 -1416.713 Z  M 5891.581 -1438.232 L 5891.581 -1386.05 L 5899.285 -1386.05 L 5899.285 -1438.232 L 5891.581 -1438.232 L 5891.581 -1438.232 L 5891.581 -1438.232 L 5891.581 -1438.232 L 5891.581 -1438.232 L 5891.581 -1438.232 L 5891.581 -1438.232 L 5891.581 -1438.232 Z  M 6489.884 -1422.758 C 6484.365 -1422.758 6480.6 -1420.359 6478.585 -1415.561 L 6477.864 -1422.038 L 6471.313 -1422.038 L 6471.313 -1386.05 L 6479.017 -1386.05 L 6479.017 -1405.123 C 6479.017 -1407.426 6479.446 -1409.396 6480.31 -1411.027 C 6481.222 -1412.659 6482.399 -1413.88 6483.839 -1414.696 C 6485.278 -1415.512 6486.789 -1415.919 6488.372 -1415.919 C 6490.1 -1415.919 6491.562 -1415.704 6492.762 -1415.272 L 6493.841 -1422.038 C 6492.881 -1422.518 6491.563 -1422.758 6489.884 -1422.758 L 6489.884 -1422.758 L 6489.884 -1422.758 L 6489.884 -1422.758 L 6489.884 -1422.758 L 6489.884 -1422.758 L 6489.884 -1422.758 L 6489.884 -1422.758 L 6489.884 -1422.758 Z  M 5985.279 -1438.735 C 5981.344 -1438.735 5978.275 -1437.728 5976.067 -1435.712 C 5973.86 -1433.697 5972.753 -1430.868 5972.753 -1427.222 L 5972.753 -1422.038 L 5965.988 -1422.038 L 5965.988 -1415.993 L 5972.753 -1415.993 L 5972.753 -1386.05 L 5980.457 -1386.05 L 5980.457 -1415.993 L 5991.9 -1415.993 L 5991.9 -1422.038 L 5980.239 -1422.038 L 5980.239 -1426.645 C 5980.239 -1430.532 5982.353 -1432.476 5986.575 -1432.476 C 5988.207 -1432.476 5989.573 -1432.139 5990.677 -1431.467 L 5992.118 -1437.009 C 5991.494 -1437.537 5990.557 -1437.944 5989.31 -1438.232 C 5988.11 -1438.568 5986.766 -1438.735 5985.279 -1438.735 L 5985.279 -1438.735 L 5985.279 -1438.735 L 5985.279 -1438.735 L 5985.279 -1438.735 L 5985.279 -1438.735 L 5985.279 -1438.735 L 5985.279 -1438.735 L 5985.279 -1438.735 Z  M 6515.679 -1422.758 C 6512.176 -1422.758 6509.081 -1422.014 6506.394 -1420.527 C 6503.707 -1419.039 6501.597 -1416.881 6500.061 -1414.05 C 6498.574 -1411.219 6497.83 -1407.883 6497.83 -1404.044 C 6497.83 -1400.205 6498.574 -1396.87 6500.061 -1394.039 C 6501.597 -1391.207 6503.73 -1389.049 6506.464 -1387.562 C 6509.199 -1386.074 6512.343 -1385.33 6515.894 -1385.33 C 6519.924 -1385.33 6523.286 -1386.267 6525.973 -1388.138 C 6528.708 -1390.057 6530.578 -1392.697 6531.585 -1396.056 L 6524.602 -1398.432 C 6524.123 -1396.177 6523.141 -1394.447 6521.654 -1393.248 C 6520.166 -1392.048 6518.197 -1391.448 6515.75 -1391.448 C 6512.535 -1391.448 6510.017 -1392.53 6508.193 -1394.689 C 6506.418 -1396.848 6505.53 -1399.943 6505.53 -1403.974 C 6505.53 -1408.004 6506.418 -1411.122 6508.193 -1413.329 C 6509.969 -1415.536 6512.486 -1416.64 6515.75 -1416.64 C 6520.068 -1416.64 6522.852 -1414.363 6524.1 -1409.804 L 6531.371 -1412.682 C 6530.171 -1415.801 6528.276 -1418.249 6525.685 -1420.024 C 6523.094 -1421.847 6519.758 -1422.758 6515.679 -1422.758 L 6515.679 -1422.758 L 6515.679 -1422.758 L 6515.679 -1422.758 L 6515.679 -1422.758 L 6515.679 -1422.758 L 6515.679 -1422.758 L 6515.679 -1422.758 L 6515.679 -1422.758 Z  M 6207.305 -1422.038 L 6207.305 -1398.288 C 6207.305 -1393.921 6208.53 -1390.656 6210.977 -1388.496 C 6213.424 -1386.385 6216.567 -1385.33 6220.406 -1385.33 C 6226.404 -1385.33 6230.577 -1387.514 6232.928 -1391.881 L 6233.29 -1386.05 L 6240.055 -1386.05 L 6240.055 -1422.038 L 6232.352 -1422.038 L 6232.352 -1402.533 C 6232.352 -1398.934 6231.441 -1396.224 6229.617 -1394.401 C 6227.794 -1392.577 6225.562 -1391.667 6222.922 -1391.667 C 6220.284 -1391.667 6218.295 -1392.314 6216.951 -1393.61 C 6215.656 -1394.905 6215.008 -1397.112 6215.008 -1400.231 L 6215.008 -1422.038 L 6207.305 -1422.038 L 6207.305 -1422.038 L 6207.305 -1422.038 L 6207.305 -1422.038 L 6207.305 -1422.038 L 6207.305 -1422.038 L 6207.305 -1422.038 L 6207.305 -1422.038 Z  M 6180.247 -1416.569 C 6183.318 -1416.569 6185.717 -1415.466 6187.445 -1413.259 C 6189.172 -1411.052 6190.035 -1407.979 6190.035 -1404.044 C 6190.035 -1400.109 6189.146 -1397.04 6187.371 -1394.833 C 6185.643 -1392.673 6183.222 -1391.593 6180.103 -1391.593 C 6177.08 -1391.593 6174.655 -1392.722 6172.832 -1394.977 C 6171.056 -1397.232 6170.171 -1400.254 6170.171 -1404.044 C 6170.171 -1407.883 6171.082 -1410.93 6172.906 -1413.185 C 6174.777 -1415.44 6177.224 -1416.569 6180.247 -1416.569 L 6180.247 -1416.569 L 6180.247 -1416.569 L 6180.247 -1416.569 L 6180.247 -1416.569 L 6180.247 -1416.569 L 6180.247 -1416.569 L 6180.247 -1416.569 L 6180.247 -1416.569 Z  M 6643.328 -1542.248 Q 6667.597 -1515.639 6707.366 -1515.639 Q 6747.134 -1515.639 6771.403 -1542.248 Q 6795.966 -1568.858 6795.966 -1612.72 Q 6795.966 -1656.581 6771.403 -1683.19 Q 6747.134 -1709.8 6707.366 -1709.8 Q 6667.597 -1709.8 6643.328 -1683.19 Q 6619.057 -1656.581 6619.057 -1612.72 Q 6619.057 -1568.858 6643.328 -1542.248 L 6643.328 -1542.248 L 6643.328 -1542.248 L 6643.328 -1542.248 L 6643.328 -1542.248 L 6643.328 -1542.248 L 6643.328 -1542.248 L 6643.328 -1542.248 Z  M 6430.662 -1719.449 L 6584.763 -1719.449 L 6584.763 -1706.583 L 6514.877 -1706.583 L 6514.877 -1505.99 L 6500.256 -1505.99 L 6500.256 -1706.583 L 6430.662 -1706.583 L 6430.662 -1719.449 L 6430.662 -1719.449 L 6430.662 -1719.449 L 6430.662 -1719.449 L 6430.662 -1719.449 L 6430.662 -1719.449 Z  M 6377.151 -1612.72 C 6377.151 -1627.486 6389.14 -1639.475 6403.907 -1639.475 C 6418.674 -1639.475 6430.662 -1627.486 6430.662 -1612.72 C 6430.662 -1597.953 6418.674 -1585.964 6403.907 -1585.964 C 6389.14 -1585.964 6377.151 -1597.953 6377.151 -1612.72 L 6377.151 -1612.72 L 6377.151 -1612.72 L 6377.151 -1612.72 L 6377.151 -1612.72 Z  M 6202.692 -1719.449 L 6202.692 -1627.925 L 6325.504 -1627.925 L 6325.504 -1719.449 L 6340.125 -1719.449 L 6340.125 -1505.99 L 6325.504 -1505.99 L 6325.504 -1615.643 L 6202.692 -1615.643 L 6202.692 -1505.99 L 6188.071 -1505.99 L 6188.071 -1719.449 L 6202.692 -1719.449 L 6202.692 -1719.449 L 6202.692 -1719.449 L 6202.692 -1719.449 Z  M 6080.025 -1709.8 Q 6057.51 -1709.8 6044.936 -1699.858 Q 6032.655 -1690.208 6032.655 -1672.664 Q 6032.655 -1640.499 6080.318 -1625.878 Q 6114.237 -1615.643 6129.15 -1600.146 Q 6144.063 -1584.648 6144.063 -1560.086 Q 6144.063 -1532.599 6127.103 -1517.686 Q 6110.436 -1503.065 6079.148 -1503.065 Q 6043.474 -1503.065 6016.28 -1522.657 L 6021.543 -1534.353 Q 6046.69 -1515.639 6079.148 -1515.639 Q 6103.711 -1515.639 6116.577 -1527.043 Q 6129.443 -1538.447 6129.443 -1560.086 Q 6129.443 -1579.677 6117.746 -1591.666 Q 6106.342 -1603.947 6079.148 -1612.427 Q 6018.327 -1630.557 6018.327 -1672.664 Q 6018.327 -1695.179 6034.409 -1708.63 Q 6050.784 -1722.374 6080.025 -1722.374 Q 6112.775 -1722.374 6139.97 -1708.338 L 6135.876 -1696.641 Q 6111.313 -1709.8 6080.025 -1709.8 L 6080.025 -1709.8 L 6080.025 -1709.8 Z  M 5946.978 -1719.449 L 5961.599 -1719.449 L 5961.599 -1627.925 L 5961.599 -1615.643 L 5961.599 -1505.989 L 5946.978 -1505.989 L 5946.978 -1719.449 L 5946.978 -1719.449 Z  M 6399.352 -1422.758 C 6395.85 -1422.758 6392.732 -1422.014 6389.997 -1420.527 C 6387.31 -1419.039 6385.2 -1416.881 6383.664 -1414.05 C 6382.177 -1411.219 6381.433 -1407.883 6381.433 -1404.044 C 6381.433 -1400.205 6382.177 -1396.87 6383.664 -1394.039 C 6385.2 -1391.207 6387.31 -1389.049 6389.997 -1387.562 C 6392.732 -1386.074 6395.85 -1385.33 6399.352 -1385.33 C 6402.855 -1385.33 6405.951 -1386.074 6408.638 -1387.562 C 6411.325 -1389.049 6413.413 -1391.207 6414.9 -1394.039 C 6416.436 -1396.87 6417.202 -1400.205 6417.202 -1404.044 C 6417.202 -1407.883 6416.436 -1411.219 6414.9 -1414.05 C 6413.413 -1416.881 6411.325 -1419.039 6408.638 -1420.527 C 6405.951 -1422.014 6402.855 -1422.758 6399.352 -1422.758 L 6399.352 -1422.758 L 6399.352 -1422.758 L 6399.352 -1422.758 L 6399.352 -1422.758 L 6399.352 -1422.758 L 6399.352 -1422.758 L 6399.352 -1422.758 L 6399.352 -1422.758 Z  M 6296.237 -1422.758 C 6292.782 -1422.758 6289.709 -1422.014 6287.022 -1420.527 C 6284.334 -1419.039 6282.25 -1416.881 6280.763 -1414.05 C 6279.275 -1411.219 6278.531 -1407.883 6278.531 -1404.044 C 6278.531 -1400.205 6279.275 -1396.87 6280.763 -1394.039 C 6282.298 -1391.207 6284.431 -1389.049 6287.166 -1387.562 C 6289.901 -1386.074 6293.07 -1385.33 6296.669 -1385.33 C 6300.219 -1385.33 6303.337 -1386.074 6306.024 -1387.562 C 6308.759 -1389.049 6310.751 -1391.111 6311.999 -1393.75 L 6305.88 -1396.632 C 6304.968 -1394.953 6303.746 -1393.657 6302.211 -1392.745 C 6300.723 -1391.882 6298.828 -1391.448 6296.525 -1391.448 C 6293.55 -1391.448 6291.15 -1392.337 6289.327 -1394.112 C 6287.504 -1395.888 6286.423 -1398.431 6286.087 -1401.742 L 6312.431 -1401.742 C 6312.623 -1403.182 6312.719 -1404.67 6312.719 -1406.205 C 6312.719 -1409.373 6312.045 -1412.201 6310.702 -1414.696 C 6309.406 -1417.191 6307.511 -1419.161 6305.015 -1420.601 C 6302.568 -1422.04 6299.643 -1422.758 6296.237 -1422.758 L 6296.237 -1422.758 L 6296.237 -1422.758 L 6296.237 -1422.758 L 6296.237 -1422.758 L 6296.237 -1422.758 L 6296.237 -1422.758 L 6296.237 -1422.758 L 6296.237 -1422.758 Z  M 6181.973 -1422.758 C 6179.19 -1422.758 6176.72 -1422.084 6174.561 -1420.741 C 6172.402 -1419.397 6170.769 -1417.598 6169.665 -1415.343 L 6169.307 -1422.038 L 6162.468 -1422.038 L 6162.468 -1370.935 L 6170.171 -1370.935 L 6170.171 -1391.951 C 6171.275 -1389.936 6172.834 -1388.329 6174.849 -1387.129 C 6176.864 -1385.93 6179.167 -1385.33 6181.758 -1385.33 C 6184.733 -1385.33 6187.421 -1386.074 6189.82 -1387.562 C 6192.267 -1389.097 6194.185 -1391.281 6195.577 -1394.112 C 6197.016 -1396.944 6197.735 -1400.279 6197.735 -1404.118 C 6197.735 -1407.909 6197.039 -1411.219 6195.647 -1414.05 C 6194.256 -1416.881 6192.364 -1419.039 6189.964 -1420.527 C 6187.565 -1422.014 6184.9 -1422.758 6181.973 -1422.758 L 6181.973 -1422.758 L 6181.973 -1422.758 L 6181.973 -1422.758 L 6181.973 -1422.758 L 6181.973 -1422.758 L 6181.973 -1422.758 L 6181.973 -1422.758 L 6181.973 -1422.758 Z  M 6043.273 -1422.758 C 6039.771 -1422.758 6036.653 -1422.014 6033.918 -1420.527 C 6031.231 -1419.039 6029.121 -1416.881 6027.585 -1414.05 C 6026.098 -1411.219 6025.353 -1407.883 6025.353 -1404.044 C 6025.353 -1400.205 6026.098 -1396.87 6027.585 -1394.039 C 6029.121 -1391.207 6031.231 -1389.049 6033.918 -1387.562 C 6036.653 -1386.074 6039.771 -1385.33 6043.273 -1385.33 C 6046.776 -1385.33 6049.871 -1386.074 6052.558 -1387.562 C 6055.245 -1389.049 6057.334 -1391.207 6058.821 -1394.039 C 6060.356 -1396.87 6061.123 -1400.205 6061.123 -1404.044 C 6061.123 -1407.883 6060.356 -1411.219 6058.821 -1414.05 C 6057.334 -1416.881 6055.245 -1419.039 6052.558 -1420.527 C 6049.871 -1422.014 6046.776 -1422.758 6043.273 -1422.758 L 6043.273 -1422.758 L 6043.273 -1422.758 L 6043.273 -1422.758 L 6043.273 -1422.758 L 6043.273 -1422.758 L 6043.273 -1422.758 L 6043.273 -1422.758 L 6043.273 -1422.758 Z  M 5819.336 -1422.758 C 5815.833 -1422.758 5812.715 -1422.014 5809.98 -1420.527 C 5807.293 -1419.039 5805.183 -1416.881 5803.647 -1414.05 C 5802.16 -1411.219 5801.416 -1407.883 5801.416 -1404.044 C 5801.416 -1400.205 5802.16 -1396.87 5803.647 -1394.039 C 5805.183 -1391.207 5807.293 -1389.049 5809.98 -1387.562 C 5812.715 -1386.074 5815.833 -1385.33 5819.336 -1385.33 C 5822.838 -1385.33 5825.934 -1386.074 5828.621 -1387.562 C 5831.308 -1389.049 5833.396 -1391.207 5834.883 -1394.039 C 5836.419 -1396.87 5837.185 -1400.205 5837.185 -1404.044 C 5837.185 -1407.883 5836.419 -1411.219 5834.883 -1414.05 C 5833.396 -1416.881 5831.308 -1419.039 5828.621 -1420.527 C 5825.934 -1422.014 5822.838 -1422.758 5819.336 -1422.758 L 5819.336 -1422.758 L 5819.336 -1422.758 L 5819.336 -1422.758 L 5819.336 -1422.758 L 5819.336 -1422.758 L 5819.336 -1422.758 L 5819.336 -1422.758 L 5819.336 -1422.758 Z  M 6556.021 -1422.758 C 6552.566 -1422.758 6549.497 -1422.014 6546.81 -1420.527 C 6544.123 -1419.039 6542.035 -1416.881 6540.547 -1414.05 C 6539.06 -1411.219 6538.316 -1407.883 6538.316 -1404.044 C 6538.316 -1400.205 6539.06 -1396.87 6540.547 -1394.039 C 6542.083 -1391.207 6544.219 -1389.049 6546.954 -1387.562 C 6549.689 -1386.074 6552.855 -1385.33 6556.453 -1385.33 C 6560.004 -1385.33 6563.122 -1386.074 6565.809 -1387.562 C 6568.544 -1389.049 6570.535 -1391.111 6571.783 -1393.75 L 6565.664 -1396.632 C 6564.753 -1394.953 6563.531 -1393.657 6561.995 -1392.745 C 6560.508 -1391.882 6558.612 -1391.448 6556.309 -1391.448 C 6553.334 -1391.448 6550.935 -1392.337 6549.112 -1394.112 C 6547.288 -1395.888 6546.207 -1398.431 6545.871 -1401.742 L 6572.216 -1401.742 C 6572.407 -1403.182 6572.504 -1404.67 6572.504 -1406.205 C 6572.504 -1409.373 6571.83 -1412.201 6570.486 -1414.696 C 6569.191 -1417.191 6567.299 -1419.161 6564.804 -1420.601 C 6562.356 -1422.04 6559.428 -1422.758 6556.021 -1422.758 L 6556.021 -1422.758 L 6556.021 -1422.758 L 6556.021 -1422.758 L 6556.021 -1422.758 L 6556.021 -1422.758 L 6556.021 -1422.758 L 6556.021 -1422.758 L 6556.021 -1422.758 Z  M 6782.223 -1533.184 Q 6753.859 -1503.065 6707.366 -1503.065 Q 6660.872 -1503.065 6632.508 -1533.184 Q 6604.144 -1563.302 6604.144 -1612.72 Q 6604.144 -1662.137 6632.508 -1692.255 Q 6660.872 -1722.374 6707.366 -1722.374 Q 6753.859 -1722.374 6782.223 -1692.255 Q 6810.879 -1662.137 6810.879 -1612.72 Q 6810.879 -1563.302 6782.223 -1533.184 L 6782.223 -1533.184 L 6782.223 -1533.184 L 6782.223 -1533.184 L 6782.223 -1533.184 L 6782.223 -1533.184 L 6782.223 -1533.184 L 6782.223 -1533.184 Z  M 5714.95 -1455.402 L 5714.95 -1455.402 L 5714.95 -1455.402 Q 5720.944 -1449.554 5731.763 -1449.554 L 5731.763 -1449.554 L 5731.763 -1449.554 Q 5742.583 -1449.554 5748.723 -1455.402 L 5748.723 -1455.402 L 5748.723 -1455.402 Q 5754.864 -1461.25 5754.864 -1471.777 L 5754.864 -1471.777 L 5754.864 -1471.777 Q 5754.864 -1479.965 5750.917 -1490.784 L 5750.917 -1490.784 L 5750.917 -1490.784 Q 5746.969 -1501.603 5732.056 -1532.306 L 5732.056 -1532.306 L 5731.471 -1532.306 L 5731.471 -1532.306 Q 5716.851 -1501.896 5712.903 -1491.076 L 5712.903 -1491.076 L 5712.903 -1491.076 Q 5708.956 -1480.257 5708.956 -1471.777 L 5708.956 -1471.777 L 5708.956 -1471.777 Q 5708.956 -1461.25 5714.95 -1455.402 L 5714.95 -1455.402 L 5714.95 -1455.402 L 5714.95 -1455.402 Z  M 5813.295 -1703.5 L 5739.951 -1544.588 L 5739.951 -1544.588 Q 5757.496 -1509.206 5762.467 -1495.755 L 5762.467 -1495.755 L 5762.467 -1495.755 Q 5767.438 -1482.304 5767.438 -1471.777 L 5767.438 -1471.777 L 5767.438 -1471.777 Q 5767.438 -1456.279 5757.934 -1447.507 L 5757.934 -1447.507 L 5757.934 -1447.507 L 5757.934 -1447.507 Q 5748.431 -1438.735 5731.763 -1438.735 L 5731.763 -1438.735 L 5731.763 -1438.735 Q 5715.096 -1438.735 5705.739 -1447.507 L 5705.739 -1447.507 L 5705.739 -1447.507 Q 5696.382 -1456.279 5696.382 -1471.777 L 5696.382 -1471.777 L 5696.382 -1471.777 Q 5696.382 -1482.304 5701.353 -1495.755 L 5701.353 -1495.755 L 5701.353 -1495.755 Q 5706.324 -1509.206 5723.869 -1544.588 L 5723.869 -1544.588 L 5650.524 -1703.501 L 5650.524 -1703.501 L 5578.832 -1505.989 L 5563.042 -1505.989 L 5643.163 -1719.449 L 5658.953 -1719.449 L 5731.763 -1557.746 L 5732.348 -1557.746 L 5805.159 -1719.449 L 5820.656 -1719.449 L 5900.777 -1505.989 L 5884.987 -1505.989 L 5813.295 -1703.5 L 5813.295 -1703.5 Z " fill-rule="evenodd" fill="rgb(36,33,36)"/></g></svg>
